<svg version="1.2" xmlns="http://www.w3.org/2000/svg" viewBox="0 0 1537 862" width="1537" height="862">
	<title>Annual_Report_2022-2023-1 (2)-pdf-svg</title>
	<defs>
		<clipPath clipPathUnits="userSpaceOnUse" id="cp1">
			<path d="m4066.42-7229.96v8403.57h-6592.31v-8403.57z"/>
		</clipPath>
	</defs>
	<style>
		.s0 { fill: #2c2e35 } 
		.s1 { fill: #0065b7 } 
	</style>
	<g id="Clip-Path: Page 1" clip-path="url(#cp1)">
		<g id="Page 1">
			<path id="Path 3" fill-rule="evenodd" class="s0" d="m864.3 807.1c-5.5 3.8-10.5 7.7-15.5 11.6-5 3.8-9.4 8.3-14.4 12.7l-6.1 15.5q-0.5 1.1-1.1 2.2-0.5 1.1-1.1 2.2c-1.1 2.7-2.7 4.4-4.4 6.6q-2.8 2.8-6.6 3.3-3.4-0.5-5-2.2-1.7-2.2-1.7-5c0-1.6 0.6-2.7 0.6-4.4q0.5-2.7 1.6-5c1.1-2.7 2.8-5.5 4.5-7.7 1.6-2.8 3.3-5.5 4.9-7.7 1.1-1.1 2.3-2.2 3.4-3.9 0.5-1.1 1.6-2.2 2.7-3.3l2.2-5.5q-2.7 2.7-6 3.3-2.8 1.1-6.1 1.1-6.7 0-10.5-5-2.8-4.4-3.9-8.8c-1.1 0.5-2.2 1.6-3.3 2.2-0.6 0.5-1.7 1.1-2.8 2.2-3.3 2.2-6.6 4.4-10.5 6.1-3.3 2.2-7.2 3.3-11.1 3.3q-2.7 0-4.9-1.7c-1.1-1.1-1.7-2.7-1.7-4.4v-2.8c0-0.5 0-1.6 0.6-2.2q0-1.1 0.5-2.2l8.9-19.9-33.8 28.2q0 0.6-0.5 0.6c-0.6 0.5-0.6 1.1-1.1 1.1-1.1 1.1-2.3 1.6-2.8 2.2q-1.7 1.1-3.3 1.1-2.2 0-3.3-1.1-1.1-1.1-1.1-3.3c0-1.7 0.5-3.4 0.5-5q1.1-2.8 1.7-5c0.5-0.6 0.5-1.1 1.1-2.2 0-0.6 0.5-1.1 0.5-1.7l-5.5 4.5c-0.6 0.5-1.7 1.6-2.8 2.2-1.1 1.1-2.2 1.6-3.3 2.2q-2.8 2.2-5.5 4.4-3.3 1.1-6.7 2.8c-1.6 0.5-3.3 1.1-4.4 1.6-1.6 0.6-3.3 0.6-5 0.6q-3.3 0-4.9-1.7c-1.7-1.1-2.2-2.2-2.2-4.4q0-2.8 0.5-5.5c0.6-1.7 1.1-3.9 1.7-5.6 0-0.5 0-0.5 0.5-0.5v-0.6c-0.5 0.6-1.1 0.6-1.6 1.1-0.6 0.6-1.1 0.6-1.7 1.1-0.6 0.6-0.6 1.1-1.1 1.1-0.6 0.6-1.1 1.2-1.7 1.2q-1.6 1.1-3.3 2.2c-1.1 0.5-2.2 1.1-2.8 2.2q-5.5 3.3-11.6 6.1c-3.8 2.2-7.7 3.3-12.1 3.3q-3.4 0-5-1.7c-1.7-0.5-2.2-2.2-2.2-3.9v-2.2c0.5-1.1 0.5-1.6 0.5-2.2q0.6-1.6 1.1-3.3c0.6-1.1 1.1-2.2 1.1-3.3q0.6-1.1 1.1-2.2c0.6-0.6 0.6-1.1 1.2-1.7-2.3 0.6-3.4 1.7-5 3.3q-2.5 1.7-5 3.4c-0.6 0.5-1.1 1.1-1.7 1.1q-0.5 0.5-1.1 0.5c-3.3 2.8-7.2 5-11 7.2-4.4 2.2-8.3 2.8-12.7 2.8h-3.4q-1.6 0.8-3.3 1.6c-1.1 0.6-2.2 0.6-3.3 0.6h-2.8q-2.7-1.1-5.5-2.8-2.8-1.6-2.8-5.5c0-1.1 0-1.7 0.6-2.2 0-0.6 0.5-1.1 1.7-1.1 0.7 0 3.5 0 3.8 0 0.6 0 1.1 0.5 1.7 0.5h4.4c1.1 0 1.7-0.5 2.8-0.5 1.6-2.2 2.7-5 3.8-8.3q1.7-3.9 1.7-8.9v-2.7c0.6-1.1 0.6-2.2 0.6-2.8-1.2 0.6-1.7 1.1-2.3 2.2-1.1 0.6-1.6 1.1-2.2 2.2-3.3 2.8-6.1 5.6-9.4 8.3q-3.8 3.9-8.8 7.2v0.6c-1.1 0.5-2.2 1.6-3.3 2.2q-1.1 1.6-3.4 2.7c-2.2 2.2-5.5 3.9-8.3 6.1-3.3 1.7-6.6 2.8-9.9 2.8-2.2 0-3.9-0.6-5-2.2q-1.6-2.5-1.6-5-2.8 3.3-6.1 5.5-3.9 1.7-8.3 1.7c-6.1 0-10.5-1.7-13.3-5.6q-2.8-3.3-3.3-8.2-1.7 1.1-2.8 2.2c-1.1 1.1-2.2 1.6-3.3 2.2q-3.9 3.8-8.3 6.6c-3.3 1.7-6.6 2.8-10.5 2.8h-2.2q-2.2-0.6-4.4-1.7c-1.7-1.1-2.3-2.2-2.3-3.9 0-2.2 0-3.8 0.6-5.5 0.6-1.6 1.1-3.3 1.7-5.5 0 0 0-0.6 0-1.1 0.5-0.6 0.5-1.1 0.5-1.7q-1.1 1.1-2.2 2.2-1.1 0.6-2.2 1.7c-0.6 0.5-1.1 0.5-1.7 1.1 0 0-0.5 0.6-1.1 0.6v-12.2q3.9-3.3 7.8-6.6c2.2-2.3 4.9-4.5 7.2-7.2l17.1-51.4c0-0.6 0-1.7 0.6-2.3 0.5-1.1 0.5-1.6 1.1-2.7q1.1-2.8 3.3-5.6c1.1-1.1 2.7-2.2 5-2.2 1.6 0 2.7 1.1 3.3 1.7 0.5 1.7 1.1 2.8 1.1 4.4q0 4.4-1.1 8.9c-0.6 2.7-1.1 6-1.7 8.8q-2.2 6.1-4.4 12.2-2.8 6.1-5.5 11.6-1.1 1.6-1.7 3.3-0.6 1.7-1.7 3.3l-11 32.6q0 0.9 0 1.7c0 0-0.6 0.5-0.6 1.1 0 0.6 0.6 1.1 0.6 1.7 0 0 0.5 0.5 1.1 0.5 0.5 0 1.6-0.5 3.3-2.2 1.7-1.1 3.3-2.2 5.5-3.9q0 0 0.6-0.5 0.5 0 0.5-0.6 2.8-2.2 4.5-3.8c1.6-1.1 2.7-2.3 3.3-2.8q2.2-9.4 9.9-15.5 10.5-7.7 23.3-9.9 2.7-1.1 5.5-1.1c1.7 0 9.4 0 10.5 0q2.2 0 5 0.5v10c-1.7 0-3.3-0.6-5-0.6-1.7 0-3.3 0-5.5 0-1.1 0-2.8 0-3.9 0q-2.8 0.6-4.4 1.1c-5.5 1.7-11.1 3.9-15.5 7.8-4.4 3.8-6.6 8.2-6.6 14.3v2.2q0.5 2.2 1.1 3.9c1.1 1.1 1.6 1.1 3.3 1.1 0 0 0.5 0 1.1 0q0.8 0 1.6 0 3.9-1.6 7.2-5.5c2.8-2.2 4.5-5 6.7-7.8q1.6-2.7 3.3-5.5 1.7-2.7 2.8-5h12.7l-8.3 18.8-0.6 0.6v1.6c0 0 0.6 0 0.6 0.6h0.5q1.7 0 3.4-1.7 2.7-1.6 4.9-3.3 0.6 0 1.1-0.5c0 0 0 0 0.6-0.6q2.2-1.6 3.9-3.3c1.1-0.5 2.2-1.7 2.7-2.2 5-3.9 9.4-7.7 13.3-12.2 4.4-4.4 8.3-8.8 11.6-13.8v-2.2c0-1.1 0-1.7 0.6-2.2 0-2.8 1.1-5.5 2.2-7.8 1.1-1.6 3.3-3.3 6.1-3.8q2.7 0 4.9 1.6 1.7 2.2 1.7 5c0 1.7 0 3.3-1.1 5-0.6 1.6-1.7 2.7-2.8 4.4q0.6 2.2 1.1 3.9c0 1.6 0 5.5 0 7.2 0.6 1.1 0.6 1.6 0.6 2.7q0 6.1-1.7 12.2-1.1 5.5-3.8 11c2.7-1.1 5.5-2.7 7.7-4.4 2.8-1.1 4.4-2.7 7.2-4.9 0 0 0.5-0.6 1.1-0.6 0-0.6 1.1-1.7 1.1-1.7v0.6q5.5-4.4 10-8.9c3.3-3.3 6.6-6.6 9.4-9.9l6-14.4h-11.6l3.9-10.5h11.6q0.6-1.6 1.7-5.5c0.5-2.2 1.1-5 2.2-7.2 1.6-4.4 3.3-7.7 5.5-11.1q2.8-4.9 7.2-4.9 2.2 0 3.3 1.6c0.6 1.1 1.1 2.2 1.1 3.3 0 0.4 0 2.6 0 3.4-0.5 2.2-1.1 4.9-2.2 7.7q-1.6 3.9-3.3 7.7c-0.6 0.6-1.1 1.7-1.1 2.3-0.6 1.1-1.1 1.6-1.7 2.7h10l-2.2 10.5h-11.6l-17.7 42.6v1.1c-0.6 0.5-0.6 0.5-0.6 1.1v0.6c0.4 0.3 1.1 1.1 1.1 1.1q1.7 0 4.4-1.7c2.3-1.1 3.9-2.2 6.1-3.9q0.6 0 1.1-0.5c0.6-0.6 1.1-0.6 1.1-1.1q2.5-1.7 5-3.3 2.2-1.7 3.3-2.8 5-3.9 10-8.9c3.3-2.7 6.1-6 8.8-9.4l2.8-7.1 14.9-0.6-14.9 33.7q-0.6 0.6-0.6 0.6c0 0.5 0 2.7 0 2.7h0.6q0.8 0 3.3-1.6 2.2-1.1 4.4-2.8 1.2-0.5 1.2-0.5 0.5-0.6 1.1-0.6 2.2-1.6 3.8-3.3c1.1-0.5 2.2-1.7 2.8-2.2 3.3-2.8 6.6-5.5 9.4-8.3 3.3-2.8 5.5-5.5 8.3-8.8l3.9-7.8 13.2-0.5-9.4 20.4 23.8-17.1c0 0 0 0 0.6-0.6q0 0 0.5-0.5 2.2-1.1 4.4-2.2c1.2-0.6 2.8-1.1 4.5-1.1q0-0.6 0.5-0.6h1.1q0 0 0.6 0.6h1.1c1.1 0 2.2 0.5 2.8 1.1 1.1 1.1 1.6 1.6 2.2 2.7q0 1.7-0.6 2.8c-0.5 0.5-0.5 1.1-1.1 2.2v0.6q0 0.5-0.5 0.5v0.6c0 0 0 0-0.6 0.5l-10 22.1v0.6c-0.5 0.5-0.5 1.1-0.5 1.1-0.6 0.5-0.6 1.1-0.6 1.6 0 0 0 0.6 0.6 0.6h1.1q2.8 0 5.5-2.2 2.8-1.7 5.6-3.9 1.6-1.1 2.7-2.2c0.6-0.5 1.7-1.7 2.8-2.2q1.6-10.5 10.5-16.6 11.6-8.3 25.4-9.9c1.1 0 2.8-0.6 4.5-0.6 1.6 0 7.2 0 8.8 0 1.7 0 3.3 0 4.4 0.6l1.1 10.5c-1.6-0.6-3.8-0.6-6-0.6q-2.8-0.5-5.6-0.5c-0.5 0-1.6 0.5-2.2 0.5q-1.6-0.5-2.8 0c-6 0.6-11.6 2.8-17.1 7.2-5 3.3-7.2 8.8-7.2 15.5 0 0.5 0 2.2 0 2.7q0.6 1.7 1.7 3.4c0.5 0.5 1.6 1.1 2.7 1.1 0 0 1.7 0 2.3 0 2.2-1.1 4.9-2.8 7.7-5q3.3-4.2 6.6-8.3c1.7-1.7 2.8-3.9 3.9-5.5q1.1-2.8 2.8-4.5h12.1l-9.4 22.7c0.6 0 0.6 0 0.6-0.5h0.5c0 0 0-0.6 0.6-0.6l13.3-8.8c0-0.6 0.5-0.6 0.5-0.6q1.1-0.5 1.1-1.1c0.6 0 0.6 0 1.1-0.6q0 0 0.6-0.5zm-145.5-53.1q0-3.9 2.8-6.6c1.7-1.7 3.9-2.2 6.6-2.2q3.4 0 5 1.6c1.7 1.7 2.2 3.3 2.2 5.6 0 2.2-1.1 4.4-2.7 6.6q-2.8 2.8-6.7 2.8-2.7 0-5-2.3c-1.6-1.6-2.2-3.3-2.2-5.5zm641.6 53.6q-1.1 1.2-2.8 2.3c-1.1 1.1-2.2 1.6-3.3 2.2q-2.8 2.2-6.1 3.8-2.8 1.7-6.1 3.4-2.5 0.8-5 1.6c-1.6 0-3.3 0-4.4 0-1.6 0-3.9 0-5-1.1-1.6-1.1-2.2-2.2-2.2-4.4 0-2.2 1.1-10.5 2.8-12.2-2.8 2.2-6.6 5-10 7.2q-4.4 3.3-9.9 6.1c-3.9 2.2-8.3 2.8-12.2 2.8h-2.8q-0.5-0.6-1.1 0-1.6 1.1-3.3 1.6c-1.1 0-4.4 0-6.1 0-1.6 0-3.8-1.1-5.5-2.2q-2.8-1.7-2.8-5.5c0-1.1 0-1.7 0.6-2.2q0.5-1.1 1.7-1.1c0.5 0 3.3 0 3.8 0 0.6 0 1.1 0.5 1.7 0.5h4.4c1.1 0 1.7-0.5 2.8-0.5 1.6-2.8 3.3-5 4.4-8.3q1.1-4.5 1.1-8.9v-2.7c0.6-1.2 0.6-2.3 0.6-2.8-0.6 0.5-1.7 1.1-2.3 2.2-0.5 0.6-1.6 1.1-2.2 1.7-3.3 3.3-6 6-8.8 8.8-3.3 2.8-6.7 5.5-10 7.7-0.5 0-0.5 0.6-1.1 1.2-0.5 0-1.1 0.5-1.1 0.5q-5.5 3.9-11.6 7.2c-3.9 2.2-7.7 2.8-12.2 2.8h-2.2q-0.5-0.6-1.1 0-1.6 1.1-3.3 1.6c-1.1 0-5 0-6.1 0-2.2 0-3.9-1.1-6.1-2.2-1.6-1.1-2.7-3.3-2.7-5.5 0-1.1 0.5-1.7 0.5-2.2 0.6-0.6 1.1-1.1 2.2-1.1 0.6 0 3.4 0 3.9 0 0.6 0 1.1 0.5 1.7 0.5h4.4c0.5 0 1.6-0.5 2.8-0.5q2.7-3.9 3.8-8.3 1.1-4.5 1.7-8.9c0-1.1 0-5 0-5.5-0.6 0.5-1.1 1.1-1.7 2.2-1.1 0.6-1.6 1.1-2.7 1.7-2.8 3.3-5.6 6-8.3 8.8-3.4 2.8-6.7 5.5-10 7.7-5 3.9-10.5 7.2-15.5 9.4q-8.8 3.9-18.2 3.9-8.3 0-13.3-5.5-2.2-2.8-3.3-6.1-1.1 1.1-1.7 1.7-0.5 0.5-1.6 1.6-5.6 3.9-11.6 7.2-6.1 3.3-12.8 3.3c-2.2 0-3.8-0.5-5.5-2.2q-2.2-1.6-2.2-4.4 0-2.8 1.1-5.5 1.1-2.2 2.2-5l10.5-21c0-1.1 1.7-3.3-1.1-3.3h-3.9q-4.9 8.3-12.1 15.4c-6.7 7.2-16.1 13.9-24.9 18.8q-6.1 3.4-13.8 3.9c-0.6 0-1.7 0-2.3 0q-1.6-0.5-2.7-0.5c-0.6 0-0.6 0-1.1-0.6q-0.9 0-1.7 0-1.6 1.1-4.4 1.7-2.2 0-4.4 0.5c-2.8 0-4.5-1.1-6.7-2.8-1.6-1.6-2.2-3.3-2.2-5.5 0-1.6 0-2.7 1.1-2.7q1.7-1.1 3.3-1.1h4.5c1.1 0 2.2 0.5 2.7 0.5q1.1-1.1 2.8-2.8c0.5-1.1 1.7-1.6 2.8-2.7q2.2-2.2 4.4-5.6c1.6-1.6 2.8-3.3 3.3-5.5 1.1-1.6 1.7-2.7 2.2-4.4q0.6-2.8 0.6-4.4c0-1.1 0-1.7-0.6-2.2q-0.5-1.1-2.2-1.1-0.5 0-1.1 0c-0.6 0.5-1.7 0.5-2.2 1.1-0.6 0-1.1 0.5-1.7 1.1-0.5 0-1.1 0.5-1.6 1.1q-1.1 0.5-1.7 1.1-1.1 1.1-1.7 1.1c-6.6 6.6-12.7 13.8-16.5 22.1q-6.7 12.7-10 26.5 0 2.2-0.6 5-0.5 2.2-1.1 4.4v1.1c0 0.6 0 1.7-0.5 2.8q0 1.7-0.6 3.3-0.5 3.9-2.7 7.2-1.7 2.8-6.7 2.8c-1.6 0-2.7-0.6-3.8-2.2q-1.7-1.7-1.7-5 0-3.3 2.8-12.2c1.1-6.1 3.3-12.1 5.5-18.8 0.6-1.1 1.1-2.2 1.1-2.7 0.6-1.1 1.1-2.3 1.1-3.4q3.3-7.7 5.5-14.3c1.7-4.5 3.4-7.8 3.9-10q-3.3 3.9-7.7 7.8c-2.8 2.7-6.1 4.9-8.3 7.1q-1.7 0.6-2.8 1.7c-0.5 0.6-1.6 1.1-2.2 1.7-3.3 2.2-7.2 4.9-10.5 6.6-3.9 2.2-8.3 3.3-12.2 3.3-2.2 0-3.8 0-5.5-1.6-1.1-1.2-2.2-2.8-2.2-5 0-1.1 0.5-1.7 0.5-2.8q0.6-1.6 1.1-2.7c0-0.6 0-0.6 0.6-0.6v-1.1l8.3-18.8-28.8 27.1c-0.5 0.5-1.1 1.1-1.1 1.1q-0.8 0.8-1.6 1.6-1.1 1.2-2.8 2.3c-1.1 0.5-1.7 0.5-2.8 0.5q-2.2 0-3.3-0.5c-1.1-0.6-1.1-1.7-1.1-3.4 0-0.5 0-1.6 0-2.2q0.6-1.6 1.1-3.3c0.6-1.1 0.6-1.6 1.1-2.7l9.4-20.5-28.7 26.5c-0.6 0.6-1.1 1.1-1.1 1.7-0.6 0-1.1 0.5-1.7 1.1-0.6 1.1-1.7 2.2-2.8 2.8-1.1 0.5-2.2 0.5-3.3 0.5-1.6 0-2.7 0-3.3-1.1q-1.1-1.1-1.7-3.3c0-1.7 0.6-3.3 1.1-5 0.6-1.6 1.7-3.9 2.3-5.5q0.5-0.6 0.5-1.1 0.6-0.6 0.6-1.7-1.1 1.1-2.8 2.2-4.4 3.4-8.8 6.7c-1.7 1.1-3.9 2.7-6.1 3.8q-2.8 1.7-6.1 3.4-2.5 0.8-5 1.6c-1.7 0-3.3 0-4.4 0-2.2 0-3.9 0-5.5-1.1-1.2-1.1-2.3-2.2-2.3-4.4q0-2.8 1.1-5.5 0.6-2.8 1.7-5.6v-0.5q0 0 0-0.1c-1.7 1.5-4.1 3-6.1 3.9v-12.1c3.9-2.8 7.2-5.5 10.5-8.9 2.8-2.7 6.1-6 8.9-9.9l2.7-6.7 14.4-0.5-14.4 33.7c-2.2 3.3 0 3.9 2.8 1.7 8.9-5 15.5-11.1 23.2-17.7 2.8-2.8 5.6-5.5 8.3-8.9l3.9-8.3 12.7-0.5-8.3 20.5 18.8-16.1c0.6 0 1.1-0.5 1.7-1.1q0.5-0.5 1.6-1.1c0.6-1.1 2.3-1.7 3.4-2.2q1.6-1.1 4.4-1.1h0.5c1.7 0 2.8 0.5 4.5 1.1 0.5 1.1 1.1 2.2 1.1 3.9 0 1.1 0 2.2-0.6 3.8 0 1.1-0.5 2.8-1.6 4.5 0 0.5 0 0.5-0.6 1.1 0 0 0 0.5 0 1.1q-1.1 1.6-1.6 3.3c-0.6 1.1-1.2 1.6-1.7 2.8l20.5-16.6q2.2-1.7 4.9-3.4 2.2-1.6 5.6-1.6h1.1c1.6 0 2.7 0.5 3.8 1.1q1.7 1.1 1.7 3.9c0 0.5 0 1.1 0 2.2-0.6 0-0.6 1.1-0.6 1.6l-0.5 0.6c0 0 0 0.5-0.6 0.5l-11 23.8c0 0.6 0 0.6-0.6 0.6 0 0.5 0 1.1-0.5 1.1q0 0.8 0 1.6c0 0 0 0 0.5 0 0.6 0 2.2 0 2.8 0q1.1-1.1 2.2-1.6 1.7-1.1 2.8-1.7 2.5-1.6 4.9-3.3 2.8-1.7 5.6-3.3 6.1-5 12.1-10 6.1-4.4 11.1-9.9l1.7-6.1 11-1.1-4.4 13.8q3.9-5.5 9.4-9.9c3.9-2.8 8.3-3.9 12.7-3.9q6.1-0.6 10 3.9c2.2 2.7 3.8 5.5 3.8 9.9q0 6.6-3.8 13.3-3.9 6.6-8.9 12.1c4.5-1.1 8.3-2.7 12.2-4.9 7.2-3.9 12.2-8.9 17.7-15q4.4-5.5 7.7-11.6c-0.5-0.5-1.1-1.1-1.6-2.2 0-1.1-0.6-2.2-0.6-2.7q0-3.9 2.2-6.7c1.1-1.6 3.4-2.7 5.6-2.7 2.2 0 3.8 0.5 5.5 2.2 1.7 1.1 2.2 2.7 2.2 4.9v2.8l7.2-0.5c0 0.5 0.6 0.5 0.6 0.5 2.2 0 4.4 0.6 6 1.1q2.8 1.7 2.8 5.5 0 2.8-0.6 4.5c-0.5 1.1-1.1 2.2-1.6 3.8l-9.4 18.8c0 0 0 0-0.6 0.6 0 0.5 0 1.1 0 1.1q-0.5 0.5 0 1.1h0.6c1.1 0 2.2 0 3.9-1.1q2.2-1.7 4.9-3.3c0.6 0 0.6-0.6 1.1-0.6 0 0 0-0.5 0.6-0.5 1.7-1.1 3.3-2.2 4.4-3.3q1.1-0.6 1.7-1.2 1.6-11 11-19.3 10.8-10 24.9-10h2.2c2.8 0.6 5 1.7 7.2 3.4 2.2 1.6 3.3 3.8 3.3 7.1 0 6.1-2.2 11.1-7.1 14.4q-6.7 5-15.5 7.8c-1.7 1.1-3.3 1.1-5.6 1.6-2.2 0.6-3.8 1.1-5.5 1.1q0.6 2.2 2.2 3.9 1.7 1.7 5 1.7c4.4 0 8.8-1.1 13.3-3.9 3.8-1.7 8.3-4.4 12.1-7.2q0.9-0.8 1.7-1.7c0.6-0.5 1.1-1.1 2.2-1.6 4.4-3.9 9.4-7.8 13.3-12.2 4.4-4.4 8.3-8.8 11.6-13.8 0-1.1 0-3.9 0-4.4 0.6-2.8 1.1-5.6 2.8-7.8q1.6-3.3 6-3.8 2.8 0 4.5 1.6 2.2 1.7 2.2 5c0 1.7-0.6 3.3-1.1 5-0.6 1.6-1.7 2.7-2.8 4.4 0.6 1.1 0.6 2.8 0.6 3.9 0.5 1.6 0.5 2.7 0.5 4.4 0 0.5 0 4.4 0 5.5q0 6.1-1.1 12.2-1.1 5.5-3.9 11c2.3-1.1 5-2.7 7.8-4.4 2.2-1.6 5-3.3 6.6-5q1.1-0.5 1.1-0.5c0.6-0.6 1.1-0.6 1.1-1.1q7.2-5.5 13.3-12.2c4.4-4.4 8.3-8.8 11.6-13.8v-2.2c0-1.1 0-1.7 0.6-2.2 0-2.8 1.1-5.6 2.2-7.8q1.6-3.3 6.1-3.8 2.7 0 4.9 1.6 1.7 1.7 1.7 5c0 1.7 0 3.3-1.1 5-0.6 1.6-1.7 2.7-2.8 4.4q0.6 2.2 1.1 3.9c0 1.6 0 5.5 0 7.2 0.6 1.1 0.6 1.6 0.6 2.7q0 6.1-1.7 12.2-1.1 5.5-3.8 11c2.7-1.1 5.5-2.7 7.7-4.4 2.2-1.6 5-3.3 7.2-5q0.5-0.5 1.1-0.5c0-0.6 0.6-0.6 1.1-1.1 3.3-2.8 6.6-5.5 10-8.9 3.3-2.7 6-6 8.8-9.9l2.8-6.7 14.4-0.5-14.4 33.7q-0.6 0-0.6 0.6c0 0.5 0 2.2 0 2.2h0.6c0.5 0 1.6 0 2.7-1.1 1.7-0.6 3.4-1.7 5.6-2.8q0-0.5 0.5-1.1 0.6 0 1.1-0.5 1.7-1.7 3.9-2.8c1.1-1.1 2.2-1.7 2.8-2.2v1.6c1.1-7.1 3.8-13.8 8.8-19.3q6.7-8.3 15.5-10c7.2-1.6 13.3-1.1 19.4 3.4 2.7 2.7 4.4 6 4.4 9.9 0 1.7 0 2.2-0.6 3.9-0.5 1.1-1.6 2.2-2.2 3.3 0 0 0 0-0.5 0.5 0 0 0 0 0 0.6 0 0.6 0.5 1.1 0.5 1.7 0 0.5 0 1.1 0 2.2 0 1.1 0 2.2 0 2.7 0 1.1-0.5 1.7-0.5 2.8q0 0.6 0.5 0.6 0.8 0 1.7 0c1.1 0 2.7 0 3.8-1.2q2.3-1.1 4.5-2.2c0 0 0-0.5 0.5-0.5q5-4.4 9.4-8.3 4.4-4.4 7.8-8.9l4.4-8.3 13.3-0.5-10 21 19.9-14.4c3.3-2.2 6.1-4.4 9.4-6.1 3.3-1.6 7.8-2.2 11.1 0 1.1 0.6 1.6 1.7 1.6 2.8q0 1.1 0 2.8c-1.1 2.2-2.2 4.4-3.3 7.2l-8.8 18.8q0 0.5-0.6 1.1c-1.6 3.3 0 3.3 2.8 2.7q2.2-0.5 3.9-1.6c7.7-5 17.7-14.4 23.7-20.5 4.5-4.4 7.8-8.8 11.7-13.8 0-4.4 0.5-8.3 2.7-12.2 1.7-3.8 7.2-4.9 10.5-2.2q2.2 1.7 2.2 5c0 1.7 0 3.3-1.1 5-0.5 1.6-1.6 2.7-2.7 4.4 1.6 8.3 1.6 17.7 0 26-0.6 3.3-2.2 7.2-3.9 11 2.2-1.1 5-2.7 7.7-4.4 2.8-1.6 6.7-3.9 8.9-6.6v12.1c-3.3 3.4-8.9 6.7-13.8 8.9-5.6 2.8-10 2.8-15.5 2.8-4.4 3.3-12.7 2.7-16.6-1.7-3.3-3.9-1.7-8.3 3.3-7.7q5 0.5 10.5 0 2.8-3.9 3.9-8.3c1.6-5 1.6-9.4 1.6-14.4-3.8 4.4-8.8 8.3-13.2 12.7-2.8 2.8-6.1 5.5-9.4 7.7-0.6 0.6-1.7 1.2-2.8 2.3-1.1 0.5-1.7 1.1-2.8 2.2q-4.9 3.3-10.5 6c-3.3 2.3-7.2 2.8-11.6 2.8q-2.8 0-4.4-1.1c-3.9-3.3-1.7-8.3-0.6-11.6l8.9-19.9-29.3 24.3c-3.3 2.8-6.1 5.5-9.4 7.8q-1.1 0.5-3.3 0.5c-1.2 0-2.3 0-2.8-0.5q-1.7-1.7-1.7-3.4c0-1.6 0.6-3.8 1.1-4.9q0.9-2.5 1.7-5c0.5-1.1 0.5-1.7 0.5-2.2 0.6-0.6 0.6-1.1 1.2-1.7l-5.6 4.4c-1.6 1.2-3.3 1.7-4.4 2.3-1.7 0.5-3.3 0.5-5 0.5-0.5 0-2.7 0-3.3 0-0.5 0-1.1-0.5-1.7-0.5q-0.8 0-1.6 0c-2.8 3.3-5.5 6-9.4 8.2-3.9 2.3-8.3 2.8-12.7 2.8-6.1 0-10.5-1.1-13.9-5q-3.3-3.8-3.8-9.9zm-446.9-3.9q0.3-0.3 0.6-0.5c-0.5 0-0.6 0.4-0.6 0.5zm481.2-17.1q0.5-0.6 0.5-1.1c0 0 0-0.6 0-1.1q0-1.7-1.7-2.8c-1.1-1.1-2.2-1.7-3.8-1.7-3.9 0-6.7 1.7-8.9 4.5-2.7 2.7-4.4 6-5.5 9.4q-0.6 1.6-0.6 3.3-0.5 1.6-0.5 2.7v1.7c0 2.2 0.5 3.9 1.1 5.5 1.1 1.7 2.8 2.2 5 2.8q1.6 0 3.3-1.1 1.7-0.8 3.3-1.7l0.6-0.5c0 0 0.5 0 0.5-0.6 0 0 0.6-0.5 1.1-0.5 0-0.6 0.6-0.6 1.1-1.1-0.5-1.1-1.1-1.7-1.6-2.8-0.6-1.1-0.6-2.2-0.6-3.3q0-3.9 1.7-6.6 2.2-3.4 5-5zm-203.6 7.2q2.2 0 4.5-1.1 4.4-1.7 7.7-4.5 3.3-2.2 3.3-5.5 0-1.1-0.5-1.7c-0.6-0.5-1.1-1.1-2.2-1.1-3.4 0-6.7 1.1-8.9 3.9q-4.1 3.3-6.6 8.3-0.6 0-0.6 1.1 0 1.1-0.5 1.7 1.6 0 3.8-1.1zm-256-38.7q0-3.9 2.7-6.7c1.7-1.6 3.9-2.7 6.7-2.7 1.6 0 3.3 1.1 5 2.2q1.6 1.6 1.6 5c0 2.7-0.5 4.9-2.8 6.6q-2.2 2.8-6 3.3-3.4 0-5.6-2.8-1.6-2.4-1.6-4.9zm414.2 0q0-3.4 2.8-6.7c1.6-1.1 3.8-2.2 6.6-2.2q3.3 0 5 1.7c1.6 1.6 2.2 3.3 2.2 5.5 0 2.2-1.1 4.4-2.8 6.6q-2.7 2.8-6.6 2.8-3.3 0-5-2.2c-1.6-1.7-2.2-3.3-2.2-5zm-1220.6 53.1q-1.1 1.1-1.6 1.1-1.1 1.1-2.2 1.7-5 3.8-11.1 7.7-6.1 3.3-13.3 3.3c-1.6 0-3.8-0.5-5-2.2-1.6-1.1-2.2-2.8-2.2-4.4q0-3.3 0.6-5.5 1.1-2.3 2.2-5l10.5-21c0.6-1.1 1.1-2.2 0.6-3.4q-0.9 0-1.7 0h-3.3c-3.9 5.6-7.8 10.6-12.2 15q-7.2 7.2-14.9 12.7v-12.2c3.3-2.7 6.1-6.1 9.4-9.9q4.4-5 7.7-11.1c-3.3-5-2.2-14.4 5.6-14.4q3.3 0 6 2.3c1.2 0.5 2.3 2.7 2.3 4.9v1.1c0 0.6-0.6 1.1-0.6 1.7l7.2-0.6 0.5 0.6c2.3 0 4.5 0 6.1 1.1q2.8 1.7 2.8 5.5c0 1.7 0 2.8-0.6 4.5-0.5 1.1-1.1 2.2-1.6 3.8l-9.4 18.8c0 0 0 0 0 0.6-0.6 0.5-0.6 0.5-0.6 0.5q0 0.9 0 1.7c0.6 0 0.6 0 0.6 0h0.5c0.6 0 1.7 0 3.4-1.1q2.2-1.7 4.9-3.3 0.6-0.6 1.1-0.6 0.6-0.5 0.6-0.5c1.6-1.1 3.3-2.3 4.4-3.4 1.7-1.1 2.2-1.6 3.3-2.2v0.6q1.7-10 10.5-17.2c7.2-6 24.9-14.3 34.3-6.6 2.2 1.7 3.3 3.9 3.3 7.2q0 9.4-7.1 14.4-7.2 4.9-15 7.7c-2.2 1.1-4.4 1.1-6.1 1.7-2.2 0.5-3.8 1.1-5.5 1.1q0.6 2.7 2.2 3.8c1.1 1.2 2.8 1.7 4.4 1.7q7.5 0 13.3-3.3c4.4-2.2 8.3-5 12.2-7.8q1.1-0.5 2.2-1.6c0.6-0.6 1.7-1.1 2.2-1.7v2.2q1.1-10.5 10-17.7c7.2-4.9 14.9-8.8 23.2-9.9q2.8-1.1 5.5-1.1c1.7 0 3.3 0 5.6 0h4.9c1.7 0 3.4 0 5 0.5v10c-1.6 0-3.3-0.6-5-0.6q-2.7 0-4.9 0-2.5 0-5 0c-1.1 0.6-2.8 0.6-3.9 1.1-6.1 1.7-10.5 3.9-15.5 7.8-4.4 3.9-6.6 8.3-6.6 14.4 0 0 0 1.6 0 2.2 0 1.1 0.5 2.7 1.1 3.3q1.1 1.7 3.3 1.7c0.6 0 0.6 0 1.1 0 0.6 0 1.1-0.6 1.7-0.6q3.8-1.1 7.2-5c2.2-2.2 4.4-5 6.6-7.7 1.1-2.2 2.8-3.9 3.3-5.5q1.7-2.8 2.2-5h13.3l-8.3 18.8v0.5q-0.5 0.6-0.5 1.1v0.6c0.5 0 0.5 0 0.5 0.5 0.6 0 0.6 0 0.6 0q1.1 0 3.8-1.6 1.7-1.7 4.5-3.3l0.5-0.6q0.6 0 1.1-0.5 2.2-1.7 3.9-3.4c1.1-0.5 2.2-1.6 2.8-2.2q5.5-3.8 10.5-8.8c3.3-3.3 6.6-6.7 9.4-10l6-14.3h-11.6l3.4-10.5h12.1q0.6-1.7 1.1-5.6c1.1-2.2 1.7-5 2.8-7.2 1.1-4.4 3.3-7.7 5.5-11q2.8-5 7.2-5 1.7 0 3.3 1.7c0.6 0.5 1.1 2.2 1.1 3.3q0 0.8 0 1.6v1.7c-0.5 2.2-1.1 5-2.2 7.7q-1.6 3.9-3.9 7.8c-0.5 0.5-0.5 1.6-1.1 2.2-0.5 1.1-1.1 1.6-1.1 2.8h9.4l-1.6 10.5h-11.6l-17.7 42.5c0 0.6-0.6 0.6-0.6 1.1 0 0.6 0 0.6 0 1.1v0.6c0 0 0 0 0.6 0.5q0 0.6 0.5 0.6 1.7 0 4.4-1.7c1.7-1.1 3.9-2.2 5.6-3.8q1.1 0 1.6-0.6c0.6-0.5 0.6-0.5 1.1-1.1q2.5-1.6 5-3.3c1.1-1.1 2.2-1.7 2.8-2.2v-0.6q5.5-4.4 9.9-8.8c3.4-2.8 6.7-6.1 9.4-9.4l2.8-7.2 14.4-0.6-14.4 33.8-0.5 0.5c0 0.6 0 1.1-0.6 1.1v1.1c0.6 0 0.6 0.6 0.6 0.6 1.1 0 1.6-0.6 3.3-1.7q2.7-1.1 4.9-2.7 0.6-0.6 1.2-1.1 0 0 0.5-0.6c1.7-0.5 2.8-1.7 4.4-2.8 1.1-1.1 2.2-2.2 2.8-2.7q5-3.9 9.4-7.8 4.4-3.8 8.3-8.8l3.9-8.3h13.2l-9.9 20.5 23.8-17.2c0 0 0.5 0 0.5-0.5 0.6 0 0.6 0 0.6-0.6 1.6-0.5 3.3-1.7 4.4-2.2 1.7-0.6 3.3-1.1 4.4-1.1q0.6-0.6 1.1-0.6h0.6q0.5 0 1.1 0.6h0.5c1.1 0 2.3 0.5 3.4 1.1 1.1 0.5 1.6 1.7 1.6 2.8q0 1.1 0 2.7c-0.5 0.6-0.5 1.1-1.1 1.7q0 0.5 0 1.1c-0.5 0-0.5 0.5-0.5 0.5v0.6c-0.6 0-0.6 0-0.6 0.5l-10 22.2c0 0.5 0 0.5-0.5 0.5 0 0.6 0 1.1-0.6 1.1v1.7c0 0 0 0.5 0.6 0.5h0.5c2.3 0 3.9-1.1 6.1-2.2 1.7-1.1 3.4-2.7 5.6-3.8 0.5-0.6 1.6-1.7 2.7-2.3q1.1-1.1 2.2-2.2v2.2q1.7-12.1 11.1-19.3 11.6-7.8 25.4-9.4c1.1 0 2.8-0.6 3.9-0.6q2.8 0 4.4 0h5c1.1 0 2.8 0 4.4 0.6l1.1 10.5c-2.2-0.6-4.4-0.6-6-0.6q-2.8-0.5-5.6-0.5c-1.1 0-1.6 0-2.7 0q-1.1 0-2.2 0.5c-6.1 0.6-12.2 2.8-17.2 6.7-5 3.8-7.7 9.4-7.7 16q0 0.6 0 1.1c0 0.6 0 1.1 0.5 1.7q0.6 1.6 1.1 3.3c1.1 0.5 1.7 1.1 3.3 1.1h0.6c0.6-0.6 1.1-0.6 1.7-0.6 2.2-0.5 4.9-2.2 7.1-4.4 2.8-2.7 5-5.5 7.2-8.3 1.1-2.2 2.2-3.8 3.4-5.5q1.6-2.8 2.7-5h12.7l-9.4 23.2 0.6-0.5h0.5v-0.6l13.9-8.8c0-0.6 0.5-0.6 0.5-0.6q0.6-0.5 1.1-1.1c0 0 0.6 0 0.6-0.5 0.5 0 0.5-0.6 1.1-0.6v12.2c-5.5 3.9-10.5 7.7-15.5 11.6-5 3.9-10 8.3-14.4 12.7l-6.6 15.5c0 0.6-0.6 1.1-1.1 2.2q0 1.1-0.6 2.2c-1.1 2.2-2.7 4.4-4.4 6.7-1.7 1.6-3.9 2.7-7.2 2.7-1.6 0-3.3-0.5-4.4-1.6q-1.7-2.3-1.7-5.6c0-1.1 0-2.2 0.6-3.8q0.5-2.8 1.6-5 1.1-3.9 3.9-7.8c1.7-2.7 3.9-5.5 5.5-7.7 1.2-1.1 2.3-2.2 2.8-3.9q1.7-1.6 3.3-3.3l1.7-5.5q-2.8 2.8-5.5 3.3c-2.3 0.6-3.9 1.1-6.7 1.1q-6.6 0-9.9-5c-2.8-3.3-4.5-7.1-4.5-11v2.2c-0.5 0.5-1.6 1.1-2.7 2.2-1.1 0.6-2.2 1.1-2.8 2.2q-5 3.3-10.5 6.1c-3.3 2.2-7.7 3.3-11.1 3.3q-3.3 0-4.9-1.6-2.2-1.7-2.2-4.5c0-0.5 0-1.1 0-1.1v-1.6q0-1.1 0.5-2.2 0.6-1.1 1.1-2.3l8.9-19.9-33.8 27.7c0 0.5-0.5 1.1-1.1 1.1 0 0.5-0.5 1.1-1.1 1.1-0.5 1.1-1.6 1.7-2.8 2.2q-1.1 1.1-3.3 1.1-2.2 0-3.3-1.1c-0.5-1.1-1.1-2.2-1.1-3.3 0-1.7 0.6-3.3 1.1-5q0.8-2.5 1.7-5c0.5-0.5 0.5-1.1 1.1-2.2 0-0.5 0.5-1.1 0.5-1.6l-5.5 4.4c-1.1 0.5-2.2 1.7-2.8 2.2-1.1 1.1-2.2 1.7-3.3 2.2q-2.8 2.2-6.1 3.9-3.3 1.6-6.1 3.3-2.4 0.8-4.9 1.7c-1.7 0.5-3.3 0.5-4.5 0.5-2.2 0-3.8-0.5-5.5-1.6-1.1-1.2-2.2-2.3-2.2-4.5q0-2.7 1.1-5.5 0.6-2.8 1.7-5.5v-0.6l0.5-0.5q-1.1 0.5-1.6 1.1c-0.6 0.5-1.1 0.5-1.7 1.1-0.6 0.5-1.1 1.1-1.7 1.1q-0.5 0.5-1.1 1.1-1.6 1.1-3.3 2.2-1.6 0.6-3.3 2.2-5.5 3.3-11.1 6.1c-3.8 2.2-8.3 3.3-12.1 3.3-2.2 0-3.9-0.5-5.6-1.6-1.1-0.6-2.2-2.3-2.2-4.5 0-0.5 0-1.1 0.6-1.6 0-1.1 0-1.7 0.5-2.2q0-1.7 1.1-3.4c0.6-1.1 0.6-2.2 1.1-3.3q0.6-1.1 1.2-2.2c0-0.5 0.5-1.6 1.1-2.2-2.3 1.1-3.9 2.2-5.6 3.9q-2.5 1.6-4.9 3.3c-0.6 0.5-2.3 1.7-2.8 2.2-1.1 1.1-1.7 1.7-2.8 2.8-3.3 2.2-5.5 3.8-8.8 6q-5 2.8-10 2.8c-2.2 0-3.9-0.5-5-2.2q-1.6-2.2-1.6-5-2.8 3.3-6.1 5.6-3.9 1.6-8.3 1.6c-6.1 0-10.5-1.6-13.3-5.5q-2.7-3.9-3.3-10v1.7c-5 3.9-10.5 7.2-16 9.4q-8.3 4.4-18.3 4.4-7.7 0-12.7-6.1-2.8-3.3-3.9-8.3zm-68-17.7l12.2 6.1c-5 7.8-10.5 13.9-17.7 18.8-6.1 4.4-14.4 6.7-24.4 6.7q-13.2 0-21.5-8.3c-5.6-6.1-8.3-12.7-8.3-21.6q0-6.1 1.6-12.2c1.1-3.8 2.8-7.7 4.5-12.1q7.7-15.5 21.5-29.9c12.7-12.7 34.9-26.5 53.1-14.9q6.7 4.1 6.7 13.3c0 9.9-3.9 18.8-11.1 26q-11.6 9.9-24.9 16.5-2.8 1.1-5.5 2.2-2.8 1.7-5.6 2.3l3.4-16.1c1.6-0.5 3.3-1.1 4.9-2.2 2.3-0.5 3.9-1.6 5.6-2.7q7.2-4.5 12.7-11.1 6.1-6.1 6.1-13.3c0-2.7-0.6-4.4-2.2-5.5q-1.7-1.7-5-1.7c-2.2 0-4.4 0.6-7.2 1.1q-3.3 1.7-6.6 3.4-8.9 4.9-16.6 13.8-7.8 8.3-13.3 18.2-3.3 6.7-5.5 12.7c-1.7 4.5-2.2 8.3-2.2 11.7 0 4.9 1.6 8.8 4.9 12.1 3.4 3.9 7.8 5.5 12.8 5.5 7.1 0 12.1-1.6 16.5-5.5 4.5-3.3 7.8-7.7 11.1-13.3zm250.5-35.3q0-3.4 2.8-6.1c1.7-1.7 3.9-2.8 6.1-2.8 2.2 0 4.4 0.6 5.5 2.2 1.1 1.1 2.2 2.8 2.2 5 0 2.8-1.1 4.4-2.7 6.6-2.2 1.7-4.5 2.8-7.2 2.8-1.7 0-3.3-0.5-4.5-2.2-1.6-1.7-2.2-3.3-2.2-5zm-158.7 37.6c2.2-1.1 5-2.8 7.2-4.4q1.1-0.6 2.2-2.2c2.8-3.9 0-6.7-4.4-6.1q-3.3 1.1-6.6 3.9c-3.4 3.3-5.6 7.2-7.8 11 3.3-0.5 6.1-1.1 9.4-2.2zm761.6 10.5zm273.2-8.3q0 0 0-0.5z"/>
			<path id="Path 6" fill-rule="evenodd" class="s1" d="m784.1 334.4h34.8v4.9c0 0-6.6 2.2-7.7 5-0.6 2.2 0 10.5 0 10.5l19.9-11v-2.3h-5v-7.7h30.4v6.6l-24.8 14.4 14.9 17.1c0 0 5 5.6 9.4 4.5v7.7h-32.6v-6.6h1.6l-13.3-14.9v8.8c0 0 2.3 5.5 4.5 6.1v6.1h-29.9v-6.1c0 0 5.5-2.8 5.5-5.6v-23.7c0 0-2.7-4.4-6-6.7-0.6-3.3-1.7-7.1-1.7-7.1zm-75.2 0.5h35.9v9.4h-8.8v19.4c0 0 1.1 18.8-23.3 22.6-9.9 0-24.8-4.4-23.2-16.6 0.6-5.5 3.3-10.5 11.1-10.5 5.5 0 12.7 6.7 8.3 16.1 3.3 1.1 7.7 0 8.8-5 1.1-5.5 1.7-21.6 1.7-21.6 0 0 0-4.9-5.5-5.5-3.9-0.6-5 0-5 0zm-62.5 60.3c12.1 0.5 13.8 11 13.8 15.4 0 12.8-18.2 15-18.2 15h-15.5v6.6h-23.8v-37zm58.1 0l18.2 37.6h-27.1l-5.5-6.7h-16.6l-3.3 6.7-12.2-0.6 19.4-38.1zm-28.8 25.4h12.7l-6.1-11.6zm101.8-26c11.6 0 14.4 10.5 14.4 16.6-1.1 14.9-17.7 13.8-17.7 13.8h-18.3v7.7h-24.9v-38.1zm-21.5 9.9v11.1h7.2c0 0 2.7-1.7 2.7-6.1 0-3.8-1.1-5.5-3.3-5.5-3.3 0-6.6 0.5-6.6 0.5zm92.9-9.9v8.8h-18.8v7.2h18.8v6.1h-20.5v7.2h19.9v9.9h-48.6v-38.7zm61.9 1.2c7.8 0 10.5 6 10.5 11 0 5.5-6.6 12.2-6.6 12.2l13.3 13.8h-27.7l-14.4-11.1v11.1h-24.3v-37zm-26 8.2v8.9h5c0 0 3.3-1.1 3.3-5 0-2.2-0.6-3.3-3.3-3.9-3.3-0.5-5 0-5 0zm-258.3 1.2v11h6.1c0 0 3.3 0 2.8-6.1 0-3.8-1.7-4.9-2.8-4.9zm82.4-62z"/>
			<path id="Path 7" fill-rule="evenodd" class="s1" d="m641.4 259.2c-9.4-5-21.6-13.3-21-33.2-1.7-7.2-2.8-12.2-10.5-20.5-1.7-3.3-3.3-6.6-5.5-11.6-2.3-7.7-2.8-17.1 2.7-27.6 1.7-5 1.7-8.9 1.7-8.9 0 0-4.4-13.8-3.9-23.2 1.7-9.4-1.7-12.1 19.4-36.5 2.7-6.1 3.3-20.4 8.3-27.6 3.8-6.7 7.1-10.5 24.8-19.4 6.1-4.4 12.2-16.6 20-23.2 7.7-6.1 17.1-8.8 34.8-11 5.5-1.7 13.8-11.1 29.9-14.4 12.7-2.8 19.3-1.7 32.6 1.6 7.2 0 23.8-4.9 32.1-3.3 9.4 2.2 17.1 8.9 29.3 17.7 6.6 1.7 25.4 1.7 33.7 9.4 8.3 7.8 11.1 18.3 16.6 23.2 5.5 5.6 22.7 15 26.6 24.9 4.9 8.9 2.7 17.2 6 23.8 3.9 7.2 16.6 22.7 16.1 30.9-0.6 8.9-6.1 22.7-6.1 27.1 0 4.5 6.6 23.8 4.4 33.8 0 1.1-1.1 1.6-1.6 2.7-2.8 8.9-12.8 17.2-15 22.7-2.2 5.5-1.1 24.3-10.5 34.3-3.9 4.4-9.4 7.2-13.8 9.4-5.5 3.3-10 4.9-12.2 8.3-5 4.9-12.7 21.5-21 24.3-8.8 2.8-21 2.2-30.4 6.1-9.4 2.7-19.9 13.8-24.9 14.9-5.5 1.7-10.5 2.2-12.2 5-1.6 1.6-5.5 4.9-8.8 7.2-2.2 1.6-6.1 2.7-7.8 7.1-1.6 4.5-4.4 60.9-4.4 60.9h-12.1l2.2-53.1c0 0-8.9-9.4-15.5-14.9-6.7-5.6-6.1-7.2-11.1-9.4-3.9-1.7-14.4-3.9-18.2-8.9-3.4-4.4-5-8.3-11.1-8.8-6.1-0.6-38.2-0.6-46.5-21.6-4.4-7.7-6.6-12.2-13.8-17.1-0.5-0.6-2.2-0.6-3.3-1.1zm77.4-80.8c-6.6-4.9-6.6-13.2-3.3-18.2-5.5-13.8 0-19.3 5.5-21.6-2.7-16.5 8.9-16.5 13.3-16.5 2.8-15 14.9-12.8 20.5-11.1 6.1-11.1 13.8-7.2 19.3-5 10-8.8 18.8 0.6 21.1 4.4 14.9-3.3 16.5 6.7 16.5 11.7 15.5 2.7 11.7 13.8 8.9 17.6 11.1 5.6 5 15.5 3.9 17.7 8.3 12.2-0.6 18.3-5.6 19.9 5 9.4 0 14.4-4.9 16.6-1.7 1.1-3.9 2.2-6.1 2.2-0.6 13.3-10 12.8-15.5 12.2-1.1 4.4-7.2 7.2-10 7.7-2.7 0.6-6.6-1.1-7.7 1.1-1.1 2.3-1.1 23.3-1.1 43.2 0 9.9 0.5 18.8 0.5 26.5 1.7-9.4 5-18.2 8.3-26.5 13.3-27.7 34.3-40.9 39.9-45.4-1.7 5.6-3.4 19.4-4.5 36-0.5 3.3-1.1 6.6-1.6 9.4-3.4 15.5-8.9 32-11.1 37.6-3.9 10.5 5 3.8 7.7 0 3.9-5 4.5-8.9 6.1-21.6 15.5 17.7 30.5 13.8 34.9 11.6 12.7-7.7 13.8-17.7 12.7-27.6-0.6-3.3-2.2-6.1-2.8-9.4 21.6 10.5 32.7-0.6 35.4-3.9 12.7-16 2.2-30.4-1.6-37.6 18.2-2.2 23.7-9.9 25.4-15.5 0-1.1 0.6-2.2 0.6-3.3 4.9-21.6-7.2-26-14.4-29.8 18.8-8.9 17.7-22.2 16.6-28.8-2.2-22.7-22.2-20.5-27.7-20.5 17.7-18.7 9.4-32.6 5.5-38.7-9.4-12.1-27.6-8.2-35.3-4.9 10.5-18.3 0-29.3-3.9-33.2-17.7-14.4-32.1-2.8-38.7 3.3-1.1-24.3-12.8-28.7-18.8-30.9-18.3-3.4-28.8 12.1-32.1 19.9-9.4-23.8-26.6-21.6-31.5-20.5-21.6 7.7-17.7 32.1-17.7 32.1 0 0-1.1-0.6-3.3-2.8-16.6-14.4-27.7-9.4-34.9-5-16 14.4-11.1 22.7-8.8 32.6-24.9-7.1-31 1.7-36.5 6.7-14.4 18.2 0.5 30.9 6 37-30.4-1.6-32.6 13.3-34.2 17.7-6.1 21.6 9.4 25.4 21 31.5-26 8.3-24.4 23.8-24.9 28.2 0.5 3.3 1.1 7.2 2.7 9.4 4.5 13.3 16.6 11.1 28.8 11.6-20.5 21-11.1 35.4-7.7 38.7 14.9 15 26.5 7.8 37.6 3.9-2.8 4.4-4.5 8.9-5.6 12.2-2.7 15.5 5.6 21.5 8.9 23.7 16 13.3 30.4 0 39.8-8.2-0.5 5.5 0 10.5 1.7 18.7 2.7 8.3 8.8 8.3 9.4 7.2-4.5-7.2-5.6-24.8-5.6-41.4v-12.2c-0.5-17.1-7.2-28.2-8.8-35.9 23.8 14.3 37 35.4 42 48.1 3.3 6.1 4.4 11 5 12.1 1.1 5.6 3.3 8.3 3.9 8.3v-20.4c0.5-16.1 1.1-37.6 1.1-44.3-10.5 0.6-12.7-2.7-16.1-9.4-10.5 2.8-14.9-4.9-18.2-10.5-1.7 0-3.3-1.1-4.4-2.2-6.1-3.3-6.1-11-5.6-15.5zm94.6 52c-11.6 10-18.8 20.5-23.8 29.9-6.1 12.1-7.7 23.2-8.3 29.8-1.6 10.5-5 26-5 26 0 0 0 0.6-0.5 1.7-1.7 3.8 0.5 4.4 2.2 3.3 3.9-1.7 8.9-6.1 15.5-14.4 8.8-16 13.8-32.6 16.6-46.4 1.6-11.1 2.7-21.6 3.3-29.9zm-93.5-1.6c0 0 1.7 2.7 3.4 11 0.5 2.8 1.1 11.6 1.6 20.5 0.6 11 1.7 22.6 2.8 28.7 2.7 16.1 16.6 28.8 22.7 34.8 7.1 7.2 6.6 3.4 6.6-0.5 0-3.9-1.7-29.3-3.9-43.1q-1.6-10.5-5-19.9c-10.5-23.3-28.2-31.5-28.2-31.5zm66.4-50.9c-2.2-1.1-3.9-1.1-5-0.6-1.1 0.6-1.1 3.4-0.5 5 0.5 1.1 2.7 7.2 5.5 11.6 1.1 2.8 2.2 5 2.8 6.1 3.3 5 7.2 4.4 11 2.8 3.3-1.7 3.9-5 1.7-8.3v-0.6c-2.2-3.8-14.4-15.5-15.5-16zm-10.5 2.8c0-0.6-1.1-2.3-2.8-1.7-1.6 0.6-2.2 1.7-2.2 5 0 1.1 0 6.1 0.6 9.9 0 5 0.5 10 0.5 10.5 1.1 1.7 1.7 7.2 7.8 5 1.6-0.5 5.5-1.7 3.3-7.2-0.6-1.6-1.1-4.4-2.2-8.3-2.8-6.1-4.5-12.7-5-13.2zm-8.9 2.7c-1.1-2.7-1.1-4.4-2.2-4.4-1.1-0.6-2.7 0.6-2.7 1.7 0 0.5-4.5 8.3-6.7 13.2-0.5 2.2-1.1 3.3-2.2 4.4-1.1 3.9-1.6 11.1 5 11.7 3.9 0 7.7-1.7 7.7-6.1 1.1-2.8 1.1-6.1 1.1-10zm-9.9-1.6c1.1-1.7 1.7-4.5 0.5-5.6-1.1-1.1-2.7 0-3.3 0.6-1.1 0-13.8 11.6-15.5 13.3-0.5 0.5-2.2 2.2-2.7 4.4 0 1.6 0 3.3 1.6 6.1 2.2 2.2 5.6 2.2 8.3-2.2 1.1-1.2 2.2-2.3 3.3-3.9 2.8-5 7.2-11.6 7.8-12.7zm30.4-22.4c0-8.7-7.2-15.8-16-15.8-8.9 0-16.1 7.1-16.1 15.8 0 8.7 7.2 15.7 16.1 15.7 8.8 0 16-7 16-15.7zm-35.4-16.9c0 0-14.4-12.1-17.1-13.3-1.7-1.6-6.1-2.7-8.3 1.2-1.7 2.7-1.1 7.7 3.8 9.3 4.5 1.7 15 6.1 16.6 6.7 2.2 0 4.5 0.5 5-1.1 1.1-1.1 0-2.8 0-2.8zm-6.1 11.6c0.6-2.7-1.6-3.3-1.6-3.3 0 0-13.3-5.5-18.3-6.6-5.5-1.1-7.2 1.6-7.7 4.4-1.7 5.5 5 6.6 6.1 6.6 0.5 0.6 18.2 1.1 18.2 1.1 0 0 3.3 0 3.3-2.2zm-1.1 6.1c0 0-16.6-0.5-19.3 0.6-3.3 0.5-7.2 0.5-7.8 6.6 0 2.2 2.2 7.7 10 5.5 8.3-3.3 17.7-7.2 18.2-7.7 0.6-0.6 2.8-2.2 2.2-3.3 0-1.7-3.3-1.7-3.3-1.7zm2.2 10c0 0-19.9 9.4-21 9.9-1.1 1.1-3.8 1.7-2.2 7.2 1.1 2.2 4.4 3.9 8.3 1.7 3.9-2.8 17.1-13.9 17.7-15 1.1-1.1 2.2-2.2 1.1-3.8-1.1-1.1-3.9 0-3.9 0zm42.1 0c-0.6 1.6 0 3.3 0.5 4.4 0.6 0.5 10.5 9.9 15 13.8 3.8 3.9 8.2 2.2 9.9 0 4.4-6.1 0.6-8.8-2.8-11.1-3.3-1.6-16-7.1-18.2-7.7-2.2-0.5-3.3-0.5-4.4 0.6zm3.8-7.8c0 1.1 1.1 3.3 2.3 3.9 2.2 1.1 17.1 7.2 19.9 7.7 3.3 1.1 7.2-1.1 7.7-4.4 1.1-6.1-3.9-7.2-5.5-7.7-2.2 0-19.9-0.6-21-1.1-1.1 0-2.8 0.5-3.4 1.6zm0-7.7c0 1.1 1.7 2.7 2.8 2.7 1.7 0.6 18.3 0 22.7-1.1 3.9-0.5 4.4-4.9 3.9-6.6-1.2-6.6-8.9-5-10-4.4-1.1 0-17.7 6.6-18.3 6.6-0.5 0-1.1 1.7-1.1 2.8zm-2.7-10c-1.1 5 5 2.8 7.7 2.2 9.4-2.2 15.5-6.6 18.3-8.8 2.2-2.2 1.6-6.6 1.1-7.7-5.6-5-10-1.2-11.1 0-1.6 1.6-14.4 13.2-14.4 13.2zm-6.6-6.1c0 5.6 4.4 2.8 6.6 1.1 2.2-1.6 13.9-13.2 15-15.4 1.6-1.7 1.1-6.1-0.6-7.8-5-4.4-8.3-1.1-10.5 0.6-1.1 2.2-10.5 20.4-10.5 20.4zm-7.7-4.4c0.5 4.4 4.4 1.7 5.5 0 1.1-1.6 5.5-12.7 7.2-17.7 2.2-6.6-2.2-8.3-3.9-8.8-7.2-0.6-7.2 4.9-7.2 4.9l-1.6 20.5c0 0 0.5 0 0 1.1zm-11.7 1.7c1.7 1.1 2.3 2.2 4.5 2.2 3.8-2.2 3.8-14.4 3.3-21 0-7.2-4.4-8.9-6.7-8.9-8.8 1.7-7.1 9.4-6 11.6 0.5 2.2 4.4 15 4.4 15zm-8.9 2.2c2.8 2.2 2.8-2.8 2.3-4.4-0.6-1.2-1.7-7.2-4.5-14.4-2.7-7.2-8.3-5-10.5-3.9-5 2.8-3.3 6.6-1.6 9.4 2.7 5.5 13.2 12.7 13.2 12.7zm-713.4 395.9l-12.7 0.5c-8.3 0.6-14.4 2.2-17.7 2.8l9.9-31h67c-1.7 4.5-2.8 9.4-3.9 16.1-1.1 7.2-1.7 13.2-1.7 19.9v89c0 22.1-3.8 37-12.7 47-8.3 9.9-21 14.3-39.8 14.3-9.4 0-18.8-1.6-27.7-5.5 10-2.7 18.8-6.6 23.8-12.1 10.5-10.6 15.5-28.2 15.5-52.6zm1478.8 97.9c4.5 0 7.8 2.2 10.6 5q4.4 3.8 4.4 10.5 0 6.1-4.4 9.9-3.9 4.4-10.6 4.4c-4.4 0-7.7-1.1-11-4.4q-4.4-3.8-4.4-9.9 0-6.7 4.4-10.5c3.3-2.8 6.6-5 11-5zm-175.3-4.4v-88.5c0-7.2 0-12.7-1.6-17.7q-1.1-7.2-4.4-14.4h47c26 0 48.1 6.7 63.6 21.1 16.6 14.3 24.8 32.6 24.8 55.8 0 22.7-7.7 41.5-23.2 54.7-16 14.4-37 21-63 21h-49.2q3.3-7.2 4.4-14.3c1.6-5 1.6-10.5 1.6-17.7zm41 2.2h2.2c12.7 0 23.2-4.4 30.4-12.7 7.7-7.8 11-18.8 11-33.2 0-15.5-3.3-28.2-11-37.1-8.9-9.4-19.4-13.2-32.6-13.2zm-143.3-2.2v-93.5c-8.3 0-15.5 0.6-21 1.1-10 0.6-18.8 2.8-24.9 5.6l5.5-16.6 5-17.7h121.1l-4.4 17.1-5 16.1c-3.3-1.7-10.5-2.8-19.3-4.5-6.1-0.5-11.1-0.5-16.1-1.1v93.5c0 6 1.2 11.6 1.7 16.6 0.6 4.9 2.2 9.9 5 15.4h-53.1c2.2-5.5 3.3-10.5 4.4-15.4 1.1-5 1.1-10.6 1.1-16.6zm-146.5 32q3.3-7.2 4.4-14.9c0.5-4.4 1.1-9.9 1.1-17.1v-88.5c0-7.2-0.6-12.7-1.1-17.7q-1.1-7.2-4.4-14.9h51.4q-2.8 7.7-3.9 14.9c-0.5 5-1.6 10.5-1.6 17.7v93.4c9.4-0.5 16.6-1.6 22.6-2.7 11.7-2.2 22.2-5.5 31.6-10.5l-7.8 19.9-9.4 20.4zm-212.4-32v-88.5c0-7.2-1.1-12.7-1.6-17.7q-1.1-7.2-4.4-14.9h54.2c18.8 0 33.7 4.4 43.7 12.2 10.5 8.2 15.4 19.3 15.4 33.7q0 20.4-16.6 33.1c-4.4 2.8-8.8 5-13.8 7.2l24.9 34.9c5 7.2 9.4 13.2 14.4 18.2 3.9 3.9 8.8 8.9 14.9 13.8h-42.6c-2.7 0-7.2-3.3-13.8-11-6.1-7.2-13.3-16.1-19.3-26l-15-23.2v28.2c0 7.2 0.6 13.2 1.1 17.1q1.1 7.7 4.5 14.9h-52q3.3-7.2 4.4-14.9c0.5-4.4 1.6-9.9 1.6-17.1zm40.4-52.6h1.1c7.8 0 14.4-2.2 18.3-6 5-4.5 7.2-9.4 7.2-15.5 0-6.1-2.2-10.5-6.1-13.8-5-4.5-10.5-5.6-17.7-5.6h-2.8zm-168.1 84.6c2.2-5 2.8-9.9 4.4-14.9 0.6-5 0.6-10.5 0.6-17.7v-88.5c0-7.1 0-12.7-0.6-17.6q-1.1-7.2-4.4-14.4h95.7l-7.8 16.6-7.2 17.1c-4.4-2.2-9.9-3.9-18.2-5-5.5-1.1-10.5-1.6-16.6-2.2v34.8h46.5l-9.4 16.6-9.4 17.7c-3.9-2.2-10-3.3-17.7-5-2.8-0.5-6.1-1.1-10-1.1v36c11.1 0 19.4-1.1 27.1-2.8q17.1-2.8 32.1-10.5l-8.9 20.5-8.3 20.4zm-125.5-32.6v-88.5c0-7.1-0.6-12.7-1.1-17.6q-1.1-7.2-4.4-14.4h53.1c19.3 0 33.1 4.4 43.1 12.7 10.5 8.3 15.5 19.3 15.5 34.8 0 14.4-5.6 26-16.6 34.3-11.6 8.8-26.6 13.3-45.4 13.3h-3.8v25.4c0 7.2 0.5 12.7 1.6 17.7q1.1 7.2 3.9 14.9h-51.4q3.3-7.7 4.4-14.9c0.5-5 1.1-10.5 1.1-17.7zm40.4-53.1h1.6c7.2 0 13.3-1.6 17.7-5.5 5-3.9 7.2-9.4 7.2-16 0-5.6-2.2-9.4-6.6-13.9-4.5-3.3-10-4.9-16.1-4.9h-3.8zm-204.7 53l42.1-98.9c2.2-5 3.3-9.4 4.9-13.3q1.7-6.1 1.7-8.3h34.8q0 2.2 2.3 8.3 2.4 5.8 4.9 13.3l42.1 98.9c3.3 8.3 6.6 15 8.8 19.9q4.4 7.2 8.9 12.2h-49.8c0-2.2 0-5-0.6-6.6 0-2.8-1.6-6.7-2.7-10.5l-8.3-21h-48.7l-7.2 21c-1.1 3.8-2.7 7.7-2.7 10.5-0.6 1.6-0.6 4.4-0.6 6.6h-47c2.8-3.3 5-7.7 7.7-12.2 3.4-4.9 6.1-11.6 9.4-19.9zm48.7-32.6h31.5l-16.6-43.1zm-172.5 32.6v-88.4c0-7.2 0-12.8-1.7-17.7q-1.1-7.2-3.8-15h53.6c18.2 0 32.6 4.5 43.1 12.8q15 12.4 15 34.8c0 14.9-5.6 26-16.1 34.3-11.6 9.4-27.1 13.2-46.4 13.2h-2.8v26c0 7.2 0 12.7 1.7 17.2q1.1 7.7 3.8 14.9h-51.9q2.7-7.2 3.8-14.9c1.7-4.5 1.7-10 1.7-17.2zm40.9-53.1h1.7c7.2 0 12.7-2.2 17.7-5.5 3.8-4.4 6-9.9 6-16 0-5.5-2.2-10-6-13.8-4.5-3.9-10-5-16.6-5h-2.8zm-225.6 53.1c0 6.6 0.5 12.1 1.1 17.1q1.1 7.2 4.4 14.9h-52q2.2-7.7 4.4-14.9c0.6-5 0.6-10.5 0.6-17.1v-89.1c0-6.6 0-12.1-0.6-17.1q-2.2-7.7-4.4-14.9h52q-3.3 7.2-4.4 14.9c-0.6 5-1.1 10.5-1.1 17.1v24.4l35.4-45.9c1.6-2.2 3.3-3.9 3.8-5.5 1.7-1.1 2.2-2.8 2.2-5h52.6c-2.8 2.2-7.2 5.5-12.2 10.5-5 5-12.1 12.2-20.4 21.5l-33.2 37.6 40.3 51.5c7.2 8.8 13.3 16 17.7 21 5 4.4 8.3 8.3 12.8 11h-58.1c-2.2-4.9-5-9.4-7.8-14.3-3.8-4.5-7.7-11.1-12.7-17.7l-20.4-28.8z"/>
		</g>
	</g>
</svg>