<svg version="1.2" xmlns="http://www.w3.org/2000/svg" viewBox="0 0 1550 381" width="1550" height="381"><style>.a{fill:#1e7240}</style><path fill-rule="evenodd" class="a" d="m184 196.9l3.1 1.6 3.4 1.3 3.8 1.2 3.8 0.8 4 0.6 4.4 0.7 4.2 0.3 4.6 0.1 4.7 0.3 4.8-0.3h4.7 5l10.2-0.4 10.4-0.7 5.3-0.1 5.1-0.3 5.2-0.2 5.3-0.2h5.2l5.2 0.2 5.1 0.2 5.1 0.4 5.1 0.7 4.9 0.6 4.8 0.9 4.7 1.3 4.7 1.2 4.4 1.6 4.4 1.9 4.1 2.2 5 2.9 4.2 3.2 4.1 3.4 3.7 3.5 3 3.6 3 3.9 2.5 4 2.2 4.1 1.9 4.1 1.4 4.2 1.2 4.2 0.7 4.3 0.6 4.3v4.1l-0.2 4.1-0.4 4.2-0.7 3.9-1.1 3.9-1.4 3.6-1.5 3.6-1.9 3.3-2.1 3.2-2.5 2.9-2.8 2.7-2.8 2.3-3 2.2-3.6 1.8-3.4 1.4-3.8 1.1-4 0.6-4.3 0.3-4.4-0.2h-1.5-3-1.4l-1.4 0.4-1.4 0.3-1.3 0.1-1.1 0.5-1.2 0.3-1.1 0.6-1.1 0.5-1.1 0.5-1 0.8-0.9 0.6-0.9 0.6-0.8 0.6-0.7 1-0.7 0.9-0.7 0.8-0.6 1.1-0.6 0.9-0.5 1.1-0.5 1.3-0.3 1.1-0.4 1.1-0.3 1.2-0.2 1.4-0.3 1.4v1.5 2.9 1.6l0.1 4.5-0.3 4.1-0.6 4.2-1.3 3.6-1.2 3.6-1.9 3.5-2.2 3.1-2.2 3-2.8 2.6-2.8 2.4-3.1 2.2-3.5 1.9-3.6 1.5-3.6 1.6-3.8 0.8-3.9 0.8-4 0.6-4.3 0.1-4-0.1-4.4-0.5-4.3-0.9-4.2-1.1-4.2-1.3-3.9-1.8-4.1-2.2-4.1-2.5-3.7-2.9-3.8-3.4-3.6-3.6-3.3-3.9-3.1-4.6-3-4.8-2.2-4.1-1.9-4.4-1.5-4.5-1.3-4.7-1.2-4.7-0.8-4.7-0.6-5-0.7-5-0.4-5.2v-5.1-5.2-5.2-5.3-5.3l0.3-5.2 0.1-5.2 0.7-10.3 0.4-10.2 0.2-5.1v-4.7-4.9-4.5l-0.3-4.7-0.3-4.3-0.5-4.3-0.8-4.1-0.9-3.9-1-3.8-1.4-3.4c0 0-1.4-3.2-1.5-3.2zm0 0l-1.6 3.2-1.4 3.4-1.1 3.8-1 4.1-0.6 3.9-0.6 4.4-0.3 4.2-0.2 4.7v4.5 4.9 4.7 5.1l0.5 10.2 0.6 10.3 0.3 5.2 0.2 5.2 0.1 5.3 0.2 5.3v5.2l-0.2 5.2-0.1 5.1-0.5 5.2-0.6 5-0.6 5-0.8 4.7-1.1 4.7-1.4 4.7-1.4 4.5-2.1 4.4-2.2 4.1-2.8 4.8-3.1 4.6-3.3 4.1-3.8 3.4-3.6 3.4-3.9 3-3.9 2.4-4.1 2.2-4 1.8-4.3 1.4-4.2 1.1-4.2 1-4.3 0.3-4.2 0.1-4.1-0.1-4.2-0.5-3.7-0.8-4-0.9-3.6-1.4-3.6-1.6-3.2-1.9-3.2-2.1-3-2.4-2.6-2.8-2.4-3-2-3.1-1.9-3.5-1.4-3.4-1.1-3.8-0.8-4.2-0.1-4.1 0.1-4.5v-1.6-2.9-1.5l-0.3-1.4-0.3-1.2-0.3-1.3-0.3-1.1-0.5-1.1-0.5-1.2-0.4-1.1-0.7-0.9-0.4-1.1-0.8-1-0.8-0.8-0.6-0.9-1-0.6-0.7-0.7-1-0.7-0.9-0.7-1.1-0.4-1-0.5-1.2-0.6-1.3-0.3-1.1-0.5-1.2-0.2-1.4-0.3-1.3-0.3h-1.5-2.9-1.7l-4.4 0.2-4-0.4-4.3-0.6-3.7-1.1-3.6-1.4-3.3-1.7-3.2-2.2-2.9-2.3-2.7-2.9-2.3-2.8-2.2-3.1-1.8-3.3-1.7-3.6-1.4-3.6-1.1-3.9-0.6-3.9-0.5-4.3-0.1-4 0.1-4.1 0.5-4.4 0.6-4.4 1.3-4 1.4-4.3 1.9-4 2.2-4.3 2.5-3.9 2.8-3.9 3.3-3.6 3.7-3.4 3.9-3.6 4.4-3 4.9-3 4.2-2.3 4.4-1.8 4.4-1.5 4.7-1.4 4.5-1.1 4.9-1.1 4.8-0.5 5.2-0.6 5.2-0.6 5-0.2 5.1-0.2h5.2l5.2 0.2h5.3l5.3 0.3 5.2 0.3 10.3 0.5 10.1 0.5 5 0.1h4.8l4.9 0.2 4.5-0.2 4.6-0.3 4.3-0.3 4.3-0.5 4-0.8 4-0.7 3.6-1.1 3.4-1.4c0 0 3.3-1.6 3.5-1.5zm0 0l3.1-1.5 3.4-1.4 3.8-1.3 3.8-0.6 4-0.9 4.4-0.4 4.2-0.4 4.6-0.2 4.7-0.1h4.8l4.7 0.1 5 0.2 10.2 0.4 10.4 0.5 5.3 0.3 5.1 0.2 5.4 0.3h5.1 5.4 5l5.1-0.3 5.2-0.5 5-0.5 4.9-0.7 4.8-0.8 4.7-1.1 4.7-1.6 4.4-1.4 4.4-1.9 4.1-2.2 5-2.9 4.2-3.2 4.1-3.3 3.7-3.7 3.2-3.6 3-3.9 2.5-3.9 2-4.1 1.9-4.2 1.4-4.3 1.2-4.2 0.7-4.2 0.6-4.2 0.1-4.3-0.3-4-0.4-4.3-0.7-3.7-1.1-3.9-1.4-3.6-1.5-3.6-1.9-3.5-2.1-3.1-2.5-3-2.6-2.5-3-2.3-3-2.2-3.4-1.9-3.6-1.4-3.8-1.1-4-0.7-4.3-0.3h-4.4l-1.5 0.2-1.6 0.1-1.4-0.1-1.4-0.2-1.4-0.1-1.4-0.3-1.3-0.3-1.1-0.4-1.2-0.3-1.1-0.4-1.1-0.7-1.1-0.4-1-0.7-0.9-0.6-0.9-0.9-0.8-0.7-0.7-0.7-0.7-1-0.7-0.9-0.6-1-0.6-1.1-0.5-1-0.5-1.1-0.3-1.3-0.4-1.1-0.3-1.2-0.2-1.5-0.3-1.4v-1.4-2.9-1.5l0.1-4.3-0.3-4.4-0.6-3.9-1.3-4.1-1.2-3.6-1.9-3.3-2.2-3.1-2.2-2.8-2.8-2.7-2.8-2.4-3.1-2.3-3.5-1.9-3.6-1.5-3.6-1.5-3.8-0.9-3.9-0.8-4-0.4-4.3-0.4-4 0.4-4.4 0.3-4.3 0.9-4.2 1.1-4.2 1.6-3.9 1.7-4.1 2.2-4.1 2.5-3.7 3-3.8 3.1-3.6 3.6-3.3 4.2-3.1 4.2-3 4.9-2.2 4.2-1.9 4.4-1.5 4.4-1.3 4.8-1.2 4.7-0.8 4.9-0.6 4.8-0.7 5.1-0.4 5v5.3 5 5.3 5.2 5.3l0.3 5.3 0.1 5.4 0.7 10.1 0.4 10.2 0.2 5v4.9 4.8 4.7l-0.3 4.6-0.3 4.3-0.5 4.4-0.8 3.9-0.9 4-1 3.7-1.4 3.5c0 0-1.4 3.2-1.5 3.2zm0 0l-1.6-3.2-1.4-3.6-1.1-3.6-1-4-0.6-4-0.6-4.3-0.3-4.3-0.2-4.7v-4.6-4.8-4.9-5l0.5-10.2 0.6-10.3 0.3-5.3 0.2-5.2 0.1-5.3 0.2-5.2v-5.3l-0.2-5.2-0.1-5.1-0.5-5-0.6-5.1-0.6-4.8-0.8-4.9-1.1-4.7-1.4-4.8-1.6-4.5-2-4.3-2.2-4.2-2.8-4.9-3-4.3-3.5-4.1-3.6-3.6-3.6-3.1-3.9-3-4-2.7-4-2-4-1.7-4.4-1.6-4.1-1.3-4.2-0.7-4.4-0.3-4.1-0.4-4.2 0.4-4.1 0.4-3.9 0.6-3.8 1.1-3.7 1.5-3.6 1.5-3.3 1.9-3.1 2.3-3 2.4-2.5 2.5-2.5 3-2.1 3.1-1.8 3.3-1.4 3.6-1 3.9-0.8 3.9-0.3 4.4 0.2 4.4v1.6 2.9 1.4l-0.3 1.4-0.2 1.5-0.3 1.2-0.3 1.1-0.5 1.3-0.6 1.1-0.3 0.9-0.7 1.2-0.6 1-0.6 0.9-0.8 0.8-0.6 0.9-1 0.7-0.7 0.8-1 0.7-0.9 0.5-1.1 0.6-1.1 0.5-1.1 0.6-1.3 0.3-1.1 0.4-1.2 0.3-1.4 0.3-1.4 0.1-1.4 0.2-1.5 0.1-1.5-0.1-1.6-0.2-4.4-0.1-4.2 0.4-4.1 0.5-3.9 1.1-3.4 1.6-3.5 1.9-3.1 2-2.8 2.5-2.7 2.5-2.3 3-2.2 3.1-1.9 3.3-1.6 3.6-1.4 3.8-1.1 3.7-0.8 3.8-0.3 4.2-0.1 4.2 0.1 4.3 0.3 4.2 0.8 4.2 1.3 4.2 1.4 4.3 1.9 4 2 4.1 2.5 3.9 3 4.1 3.1 3.6 3.8 3.6 4 3.4 4.4 3.2 4.9 2.8 4.1 2.3 4.3 1.9 4.6 1.4 4.5 1.4 4.7 1.1 4.9 1 4.8 0.7 5.2 0.5 5 0.5 5.2 0.1 5.1 0.2h5.2l5.2-0.2 5.3-0.1 5.3-0.3 5.2-0.2 10.2-0.6 10.2-0.5 5-0.1h4.8 4.7 4.7l4.6 0.3 4.3 0.3 4.3 0.5 4 0.7 4 0.8 3.6 1.3 3.4 1.2 3.3 1.6zm391.1-156.9h121.5v41h-69.1v42.2h64.4v45.5h-64.4v46.7h69.1v43.5h-121.5zm-164.8 0h79.6l3.2 0.1 3.2 0.4 3.1 0.1 3 0.5 3.1 0.6 2.7 0.6 2.8 0.8 2.8 0.8 2.7 0.9 2.3 1.1 2.7 1.3 2.3 1.2 2.2 1.5 2.4 1.4 2.2 1.5 1.9 1.7 1.8 1.8 1.9 1.9 1.6 2 1.7 2.2 1.4 2.3 1.3 2.5 1.2 2.5 1.1 2.9 1 2.6 0.9 3 0.6 3.1 0.8 3.2 0.3 3.4 0.5 3.4 0.3 3.6v2.5l-0.2 2.7-0.1 2.5-0.2 2.2-0.3 2.5-0.3 2.2-0.2 2.3-0.4 2.1-0.5 2.2-0.5 2.2-0.4 1.8-0.7 2.1-0.6 1.9-0.6 2-0.8 1.7-0.8 1.6-0.8 2-0.9 1.4-0.9 1.8-1 1.4-1.2 1.5-1.3 1.4-1.2 1.4-1.3 1.5-1.2 1.2-1.6 1.1-1.6 1.1-1.5 1.2-1.8 1-1.7 1.1-1.9 0.9-1.8 1 2.9 0.7 2.8 1.1 2.6 1.1 2.5 1.1 2.3 1.4 2 1.5 2.1 1.5 1.9 1.6 0.7 1.1 0.7 0.8 0.9 0.9 0.6 0.9 0.5 1.1 0.6 1 0.5 1.1 0.5 0.9 0.4 1.3 0.4 1.1 0.3 1.1 0.1 1.2 0.3 1.3 0.2 1.2v1.3 1.2l2.2 53.4 0.1 2.8 0.2 2.7 0.2 2.5 0.3 2 0.4 2.1 0.5 1.7 0.5 1.4 0.8 1.2 0.7 1.1 0.8 0.7 0.8 0.7 0.8 0.7 0.8 0.4 0.8 0.4 0.7 0.3h0.7v6.9h-48.7l-2.2-0.2-2.1-0.3-1.7-0.3-1.4-0.3-1.2-0.7-0.7-0.3-0.6-0.3-0.3-0.3-0.5-0.5-0.3-0.4-0.3-0.5-0.3-0.5-0.3-0.6-0.5-1.6-0.5-1.7-0.4-2v-2.4l-0.4-2.6v-51.2l-0.1-2.5-0.3-2.2-0.7-2.1-0.4-2-1-1.7-0.3-0.8-0.4-0.8-0.5-0.6-0.6-0.8-0.5-0.6-0.6-0.7-0.7-0.4-0.8-0.6-0.7-0.5-0.8-0.3-1-0.5-1.1-0.3-0.9-0.3-1.1-0.2-1.2-0.3-1.1-0.2-2.7-0.3-2.8-0.1h-12.1v85.5h-52.6zm306.8 0h52.5v175.5h62.1v43.3h-114.6zm189.2 0v218.9h-52.8v-218.9zm125.9 200.6l-0.3 1.2-0.3 1.1-0.3 1.3-0.6 0.9-0.7 1.3-0.6 0.9-0.9 1.1-1 0.9-1.1 1.3-0.9 0.9-1.3 1.1-1.4 1.1-1.4 1-1.6 0.7-1.7 1-1.5 0.9-1.9 1-1.9 0.7-1.9 0.8-2 0.8-1.7 0.6-1.9 0.7-2.1 0.4-2 0.5-1.9 0.5-2 0.3-2.2 0.3-2 0.3-2.1 0.2-2 0.1-2 0.2h-6l-2.3-0.2-2.4-0.3-2.2-0.5-2.3-0.4-2.1-0.7-2.2-0.6-2.3-0.8-2-0.9-2.2-0.9-2.1-1-2.2-1.4-1.8-1.2-2.2-1.3-2.1-1.4-2-1.7-1.9-1.7-0.9-0.8-1.1-1-0.8-0.9-0.9-0.9-1.6-2.2-1.7-2.4-1.3-2.5-1.2-2.7-1.3-2.6-1.1-2.8-0.9-3.2-0.8-3.3-0.6-3.4-0.7-3.4-0.4-3.8-0.4-3.9v-3.9l-0.1-4.3v-106.7l0.1-3.8v-3.4l0.4-3.5 0.4-3.3 0.7-3.2 0.7-3.2 0.8-3 1.1-2.8 1-2.8 1.2-2.8 1.4-2.7 1.6-2.5 1.4-2.3 1.7-2.4 1.9-2.2 2-2 1.1-1.1 1-0.9 1.1-1 1.2-0.9 1.1-0.9 1.3-0.8 1.4-1 1.2-0.8 2.9-1.2 2.8-1.6 3.1-1.1 3.3-1.2 3.3-1.1 3.7-0.8 3.6-0.8 4-0.5 3.9-0.4 4.2-0.5 4.4-0.1h8.4l4 0.1 3.7 0.3 3.8 0.6 3.4 0.5 3.5 0.6 3.3 1 3.2 0.8 3.2 1.1 3 1.1 2.9 1.4 2.8 1.2 2.6 1.6 2.6 1.7 2.4 1.7 2.5 1.9 2 1.9 2.2 2.3 2 2.2 1.8 2.4 1.5 2.5 1.6 2.5 1.4 2.8 1.1 2.8 1.2 3 0.8 3.1 0.8 3.3 0.8 3.3 0.5 3.4 0.4 3.6 0.2 3.6v4.1 19h-53.4v-28.1l-0.2-1.5-0.1-1.6-0.5-1.4-0.3-1.1-0.8-1.2-0.9-1.1-1-0.8-1.2-0.8-1.3-0.8-1.1-0.6-1.4-0.6-1.2-0.2-1.6-0.3-1.3-0.5h-1.4l-1.4-0.1h-1.7l-1.6 0.4-1.5 0.2-1.6 0.5-1.6 0.4-1.5 0.6-1.3 0.8-1.5 0.7-1.3 0.9-1.4 1.1-0.9 0.9-1.1 1.3-0.8 1.2-0.5 1.4-0.5 1.5-0.3 1.4v122.2l0.3 1.9 0.2 1 0.3 1.1 0.2 0.7 0.3 1 0.4 0.8 0.4 0.7 0.6 0.8 0.3 0.8 0.5 0.8 0.6 0.8 0.6 0.6 0.6 0.5 1.5 1.2 1.5 1 1.3 0.7 1.5 1 1.6 0.4 1.4 0.7 1.7 0.3 1.6 0.3h3.9l1.4-0.3 1.4-0.5 1.4-0.5 1.5-0.6 1.4-0.8 1.2-0.7 1.3-1 1.1-1.1 1.2-1.1 1-1.4 0.9-1.2 0.5-1.4 0.8-1.6 0.3-1.6 0.1-1.5 0.2-1.8v-28.3h-17.9v-39h69.1v117.6h-35.1c0 0-2.3-18.3-2.2-18.3zm105.1-200.6h60l48.8 218.9h-53.4l-6.8-43.4h-39.5l-6.9 43.4h-52.3zm126.1 0h79.7l3.4 0.1 3.2 0.4 3.1 0.3 3 0.3 3.1 0.6 2.7 0.6 2.9 1 2.5 0.6 2.9 0.9 2.3 1.3 2.7 1.2 2.3 1.1 2.2 1.5 2.2 1.4 2.2 1.7 2 1.6 1.9 1.7 1.7 2 1.9 2 1.4 2.2 1.4 2.2 1.4 2.5 1.3 2.5 0.9 2.9 1.1 2.8 1 2.8 0.7 3.1 0.4 3.3 0.6 3.3 0.5 3.4 0.1 3.8v2.5 2.5l-0.3 2.5v2.4l-0.3 2.3-0.2 2.4-0.4 2.2-0.4 2.1-0.6 2.1-0.1 2.2-0.7 1.8-0.4 2.2-0.8 1.9-0.6 1.9-0.7 1.7-0.7 1.7-1 1.9-0.8 1.6-1.1 1.6-0.9 1.4-1.3 1.5-1.2 1.6-1.3 1.2-1.4 1.5-1.1 1.2-1.5 1.3-1.6 1.1-1.7 1.2-1.6 0.8-1.7 1.2-1.9 0.8-1.9 1 3 0.9 2.8 0.9 2.7 1.1 2.3 1.3 2.2 1.2 2.2 1.6 1.9 1.4 1.9 1.7 0.9 1 0.8 0.9 0.6 0.8 0.7 1.1 0.6 0.9 0.4 1.1 0.7 1 0.4 1.1 0.5 1.1 0.3 1.2 0.3 1 0.4 1.2 0.1 1.4v1.1l0.3 1.3v1.4l2.2 53.4v2.8l0.2 2.6 0.3 2.4 0.1 2.2 0.7 2 0.4 1.6 0.5 1.4 0.6 1.2 1 1.1 0.8 0.8 0.7 0.8 0.7 0.5 0.7 0.6 0.8 0.2 0.8 0.3h1v7h-49.1l-2.2-0.3-2-0.2-1.7-0.4-1.6-0.3-1.2-0.7-0.7-0.3-0.4-0.3-0.5-0.3-0.3-0.5-0.3-0.4-0.7-0.5-0.1-0.5-0.3-0.6-0.5-1.6-0.3-1.5-0.5-2.2-0.1-2.4-0.2-2.5v-3-45.7l-0.1-2.6-0.2-2.4-0.3-2.3-0.5-2.1-0.6-1.8-0.8-1.9-0.3-0.8-0.6-0.8-0.5-0.6-0.3-0.8-0.6-0.6-0.5-0.5-0.8-0.6-0.8-0.5-0.6-0.6-1.1-0.2-0.8-0.6-0.9-0.3-1.1-0.2-1.1-0.3-1.1-0.3-1.3-0.2-2.5-0.3-2.9-0.1h-12.1v85.6h-52.9zm164.9 0h121.5v41h-69.1v42.1h64.6v45.8h-64.6v46.6h69.1v43.4h-121.5zm-295.9-32.1l1.9 3.7 1.9 3 1.9 2.5 2.2 2.1 2.2 1.5 2.1 1.1 2.2 1 2.2 0.4 2.4 0.3h2.3l2.5-0.3 2.4-0.6 2.3-0.6 2.4-0.8 2.5-0.8 2.3-1.1 4.6-2 4.7-2.2 2.2-0.8 2-0.9 2.2-0.7 1.9-0.6 2-0.1 1.9-0.2 1.7 0.3 1.6 0.3 1.6 1 1.4 1.1 1.4 1.5 1.2 2.1 0.8-0.7 0.9-0.6 1.1-0.8 0.7-0.4-1.9-3.5-1.9-3.1-2-2.5-1.9-2.1-2.2-1.5-2.2-1.3-2.3-0.9-2.4-0.6h-2.2-2.3l-2.5 0.3-2.4 0.3-2.3 0.8-2.5 0.9-2.4 0.8-2.3 0.9-4.7 2.2-4.6 2.1-2.2 0.9-2.2 0.8-2 0.6-2 0.6-2.1 0.3h-1.7l-1.7-0.1-1.7-0.6-1.4-0.7-1.6-1.2-1.1-1.7-1.4-1.9-0.8 0.5-0.9 0.7-1.1 0.8zm195.7 126.7h1.1 1 0.9l0.8-0.3 0.9-0.2 1-0.3 0.9-0.3 0.8-0.5 1.9-0.8 1.5-0.9 1.6-1.4 1.7-1.4 0.8-1 0.8-0.8 0.6-1.1 0.6-0.7 0.5-1.1 0.5-1.3 0.6-1.1 0.5-1.2 0.1-1.3 0.5-1.4 0.2-1.4 0.3-1.4 0.1-1.6 0.2-1.7 0.1-1.7v-8l-0.4-2.2-0.5-2.3-0.5-2.1-0.6-1.9-0.6-1.8-0.7-1.6-0.6-1.7-0.6-1.4-0.8-1.3-0.8-1.2-0.8-1.3-0.9-0.8-0.9-0.9-0.8-0.6-1.1-0.7-1.1-0.4-2-0.7-2.5-0.7-2.4-0.5-2.5-0.5-2.7-0.1-2.8-0.4-2.8-0.1-3-0.2v58.3zm-149.2 41.1l-13.5-96.9-14.6 96.9zm-703.9-41.1h1.1 0.9 0.8l0.9-0.3 0.8-0.2 1.1-0.3 0.8-0.3 0.9-0.5 1.8-0.8 1.5-0.9 1.8-1.3 1.7-1.5 0.6-1 0.8-0.8 0.5-0.9 0.7-0.9 0.7-1.1 0.4-1.1 0.5-1.3 0.5-1.2 0.3-1.3 0.5-1.4 0.1-1.4 0.3-1.4v-1.6l0.3-1.7v-9.7l-0.4-2.2-0.3-2.3-0.8-2.1-0.3-1.7-0.7-2-0.6-1.6-0.6-1.7-0.8-1.3-0.6-1.4-1-1.1-0.8-1.2-0.7-1-1-0.9-1.1-0.5-0.8-0.6-1.1-0.6-2.1-0.7-2.4-0.7-2.3-0.5-2.5-0.5-2.9-0.1-2.6-0.4-3-0.1-3-0.2v58.3zm739.5 155.9v70.5h-13.1v-7.1l-1 1.3-0.7 0.7-0.8 1.1-0.8 1-1 0.6-0.7 0.8-1 0.6-0.9 0.5-1 0.6-0.9 0.5-1.2 0.3-1 0.3-1.1 0.2-1.2 0.3h-4.7l-1.1-0.3-1.1-0.2-1-0.3-1.2-0.2-1-0.3-0.9-0.6-0.9-0.5-1.1-0.4-0.8-0.8-1-0.6-0.7-0.8-0.8-0.8-1-1-0.6-0.7-0.8-1-0.6-1.1-0.6-0.9-0.7-1.3-0.6-1.1-0.4-1.2-0.4-1-0.3-1.2-0.4-1.3-0.4-1.2-0.3-1.4-0.1-1.4-0.2-1.4-0.1-1.4v-1.6l-0.2-1.4 0.2-1.6v-1.4l0.1-1.6 0.2-1.5 0.1-1.3 0.3-1.4 0.4-1.2 0.4-1.1 0.3-1.6 0.4-1.1 0.4-1.1 0.6-1.1 0.7-1.1 0.6-1.1 0.6-1.1 0.8-0.9 0.6-1 1-0.9 0.8-0.8 0.7-0.8 0.8-0.6 1-0.8 0.9-0.4 1.1-0.5 0.9-0.6 0.8-0.3 1.3-0.4 1.1-0.3 1.1-0.1 1.1-0.2 1.1-0.1h2.3l1.3 0.3h1.1l1.1 0.1 1.2 0.5 0.9 0.3 1.1 0.5 1 0.4 0.9 0.7 1 0.4 0.9 0.7 0.8 0.8 0.8 0.9 0.8 0.6 0.6 1 0.8 1.1v-25.1zm-36.4 44.2v1.8l0.2 1.9 0.3 1.6 0.2 1.5 0.6 1.6 0.5 1.3 0.6 1.2 0.6 1.1 0.6 0.9 1 1 0.9 0.6 1.3 0.6 0.9 0.5 1.1 0.3 1.4 0.2h1.3 1.4l1.2-0.2 1-0.3 1.2-0.5 1.1-0.6 1-0.6 0.7-1 0.8-0.7 0.6-1.3 0.7-1.2 0.4-1.3 0.5-1.6 0.2-1.5 0.3-1.6 0.1-1.9 0.2-2-0.2-1.7-0.1-1.6-0.3-1.7-0.2-1.6-0.6-1.2-0.3-1.3-0.7-1.1-0.7-1.2-0.8-1-1-0.9-0.9-0.5-1.1-0.4-0.9-0.5-1.3-0.3-1.2-0.3h-1.5-1.2l-1.3 0.3-1.1 0.3-1.1 0.5-0.9 0.4-0.8 0.6-0.9 1-1 0.9-0.6 1.1-0.6 1.3-0.5 1.2-0.4 1.3-0.4 1.5-0.1 1.5-0.3 1.7v1.7zm-73.3 26.3v-52h13.8v6.1l0.7-0.6 0.7-1.1 0.9-0.6 0.8-0.8 0.8-0.8 0.9-0.6 1-0.5 0.9-0.5 1.1-0.4 1.1-0.5 1.1-0.1 0.9-0.5 1.1-0.2 1.1-0.1h1.3 1.2 1.9l2 0.1 1.9 0.3 1.7 0.7 1.4 0.6 1.6 0.8 1.3 0.8 1.1 1.1 0.9 1 0.9 1.6 0.8 1.4 0.7 1.6 0.4 1.7 0.2 1.9 0.1 2 0.2 2.4v35.2h-13.9v-32.7l-0.2-1.3-0.2-1.1-0.1-1.1-0.2-0.9-0.3-0.9-0.5-0.7-0.4-0.6-0.5-0.6-0.6-0.5-0.6-0.3-0.8-0.5-0.8-0.1-0.8-0.3h-0.9-1-1.4-0.9l-1.3 0.3-1.1 0.3-0.8 0.5-0.9 0.4-0.8 0.5-0.8 0.8-0.6 0.8-0.6 0.9-0.3 0.9-0.7 1-0.1 0.9-0.3 1.1v33.2zm-16-70.3v12.7h-13.9v-12.7zm0 18.3v52h-14v-52zm-77.2-18.3h13.6v24.9l0.5-1.1 0.8-0.9 0.8-0.8 0.8-0.8 0.9-0.8 0.6-0.6 1-0.6 1.1-0.5 0.9-0.6 0.9-0.3 1.1-0.5 1.1-0.3 1.1-0.2 1.1-0.1 1.3-0.2h2.3l1.1 0.2 1.1 0.1 1.3 0.2 0.9 0.3 1.1 0.3 0.9 0.3 1 0.5 0.9 0.6 1.1 0.5 0.8 0.8 0.9 0.6 0.8 0.8 0.8 0.7 0.8 1 0.8 0.8 0.6 1.1 0.8 0.9 0.6 1.3 0.6 1.1 0.5 1.1 0.3 1 0.6 1.1 0.5 1.6 0.3 1.1 0.3 1.3 0.2 1.4 0.2 1.2 0.3 1.6v1.5l0.1 1.5v2.9l-0.1 1.6v1.4l-0.3 1.4-0.2 1.4-0.2 1.4-0.3 1.3-0.3 1.2-0.5 1.1-0.6 1.3-0.3 1.1-0.5 1.1-0.6 1.2-0.6 1-0.8 1.1-0.6 0.9-0.8 0.9-0.8 0.8-0.8 0.8-0.8 0.8-0.9 0.6-0.8 0.8-1.1 0.5-0.9 0.6-1 0.5-1 0.3-1.1 0.1-1.1 0.5h-1l-1.2 0.5h-4.7l-1.3-0.5h-0.9l-1.1-0.5-1-0.1-1.1-0.6-0.9-0.5-0.9-0.6-0.8-0.7-0.8-0.7-0.9-0.7-1-0.8-0.8-1.1-0.6-0.9-0.6-1.1v6.9h-13.5zm36.3 44v-1.7-1.8l-0.3-1.4-0.3-1.5-0.4-1.3-0.7-1.2-0.4-1.3-0.8-1.1-0.8-0.9-0.8-1-1.1-0.6-0.9-0.6-1.1-0.3-1.1-0.3-1.3-0.4-1.1-0.1-1.4 0.1-1.2 0.4-1.3 0.3-1.1 0.3-1.1 0.6-0.9 0.5-0.8 0.9-0.8 1-0.6 1.2-0.6 1.1-0.7 1.3-0.4 1.2-0.2 1.6-0.5 1.7v1.6 3.7 1.7l0.5 1.8 0.2 1.5 0.4 1.6 0.5 1.3 0.6 1.2 0.7 1.3 0.7 0.7 0.8 1 1.1 0.6 0.8 0.6 1.3 0.5 1.1 0.3 1.4 0.2h1.2 1.4l1.3-0.2 1.1-0.3 1.2-0.5 1-0.6 0.9-0.6 0.9-1 0.8-0.9 0.7-1.1 0.7-1.2 0.4-1.3 0.4-1.6 0.3-1.5 0.3-1.6v-1.9zm-87.5 26.8h-2.2l-1.1 0.2-1.4 0.1h-2.2l-0.6 0.2h-0.5l-1.9-0.2-1.7-0.1-1.7-0.4-1.6-0.3-1.1-0.3-1.1-0.6-1.1-0.6-0.7-0.7-0.8-0.7-0.5-1.1-0.5-1.3-0.4-1.2-0.2-1.6-0.5-1.7v-2.1-30.3h-6.9v-9.7h6.9v-14.3h13.8v14.3h8v9.7h-8v29.9l0.2 0.6 0.3 0.6 0.3 0.5 0.6 0.3 0.8 0.2 1.1 0.1h4.7zm-51.8-7l-0.7 1.2-0.9 1-0.6 0.7-0.8 1-1 0.6-0.9 0.8-0.9 0.6-1 0.6-1.1 0.5-1.2 0.5-1.1 0.3-1.3 0.3-1.2 0.2-1.3 0.1h-1.4-1.4-1.7l-1.9-0.1-1.6-0.4-1.5-0.4-1.3-0.5-1.2-0.9-1.3-0.8-1.1-1.1-0.9-1.1-0.8-1.3-0.8-1.4-0.5-1.5-0.4-1.4-0.3-1.9-0.2-1.9v-1.7-1.9l0.2-1.6 0.3-1.5 0.4-1.6 0.5-1.2 0.8-1.3 0.8-1.1 0.9-0.9 1.1-1.1 1.4-0.8 1.3-1 1.7-0.6 1.6-0.5 2.2-0.6 2.2-0.4 2-0.5 1.2-0.2 1.3-0.3 1.6-0.1 1.5-0.2 2.2-0.3 1.7-0.5 1.6-0.5 1.3-0.6 0.4-0.1 0.5-0.5 0.3-0.5 0.3-0.3 0.2-0.5 0.3-0.3v-0.4l0.2-0.7-0.2-0.6v-0.9l-0.2-0.5-0.1-0.6-0.3-0.7-0.5-0.3-0.3-0.4-0.6-0.5-0.4-0.2-0.6-0.4-0.8-0.2-0.7-0.3h-0.8-1l-1.1-0.2h-2l-0.9 0.2h-0.8l-0.8 0.2-0.8 0.3-0.9 0.3-0.7 0.3-0.6 0.5-0.5 0.4-0.6 0.3-0.1 0.7-0.3 0.4-0.5 0.7v0.8 0.7l-0.3 0.7v0.7h-12.9v-0.9-2l0.5-1.8v-0.9l0.3-0.9 0.3-0.8 0.3-0.8 0.5-0.6 0.3-1 0.6-0.6 0.4-0.5 0.6-0.9 0.6-0.5 0.5-0.8 0.8-0.6 0.7-0.4 0.8-0.5 0.8-0.5 0.8-0.5 1.7-0.7 1.9-0.7 1.9-0.6 2.2-0.3 2.3-0.2h2.4 2.6l2.5 0.2 2.4 0.3 2 0.5 2.1 0.4 1.8 0.8 1.6 0.7 1.6 0.9 1.4 0.9 1.1 1.1 0.6 0.7 0.6 0.7 0.2 0.5 0.5 0.8 0.4 0.6 0.3 0.6 0.2 1 0.1 0.6 0.4 1.6 0.1 1.7v31.2l0.2 1.4 0.1 1.1 0.3 0.9 0.4 0.8 0.6 0.5 0.5 0.6 0.7 0.4v2.2h-14.4l-0.3-0.4-0.3-0.8-0.3-1-0.2-0.6-0.1-0.8v-1.8c0 0-0.3-1-0.3-1.1zm-0.2-19.1l-1.9 0.9-1.9 0.6-2 0.7-2 0.4-1.9 0.5-1.6 0.3-0.8 0.2-0.3 0.1-1.8 0.5-1.3 0.8-0.8 0.1-0.4 0.5-0.5 0.3-0.3 0.3-0.3 0.5-0.4 0.6-0.1 0.5-0.3 0.5-0.3 0.4v0.7l-0.2 0.6v1.4l0.2 0.6 0.3 0.6 0.1 0.7 0.2 0.6 0.5 0.5 0.3 0.4 0.3 0.5 0.5 0.3 0.6 0.5 0.6 0.1 0.6 0.4 0.5 0.1 0.6 0.2 0.8 0.1h2.2l1.3-0.3 1.2-0.1 1.3-0.5 0.9-0.5 1.1-0.5 0.9-0.6 0.8-0.8 0.8-0.9 0.6-0.8 0.5-1.1 0.5-0.9 0.4-1.1 0.4-1.3v-1.2-1.3c0 0 0-5.1 0.1-5.1zm-91.5 25.6v-70.3h13.8v24.2l0.7-1 0.7-0.8 0.8-0.6 0.8-0.8 0.9-0.6 0.8-0.6 1-0.5 1.1-0.3 0.9-0.6 1.1-0.4 0.8-0.3 1.1-0.1 1.1-0.2 1.2-0.3h1.1 2.4 1.1 1.1l1.1 0.3 0.9 0.3 1.1 0.2 0.9 0.3 1 0.5 0.9 0.4 0.8 0.4 0.8 0.4 0.9 0.7 0.6 0.6 0.7 0.6 0.6 0.8 0.6 0.5 0.8 1.1 0.6 1.1 0.4 1 0.6 1.3 0.1 1.6 0.2 1.7 0.1 2.3v37.1h-13.7v-29.4l-0.2-2.2v-1.7l-0.1-1.7-0.2-1.4-0.5-1.3-0.3-0.9-0.5-0.7-0.4-0.6-0.5-0.6-0.8-0.3-0.8-0.3-0.7-0.3-1-0.2-0.9-0.2h-1.3-1.2l-1.1 0.2-1.1 0.2-1 0.3-1.1 0.4-0.7 0.7-0.8 0.3-0.8 0.8-0.6 0.9-0.7 0.8-0.4 0.9-0.3 1-0.4 0.9-0.3 1.1v1.1 32.2zm-11.9 0.5h-2.2l-1.1 0.2-1.2 0.1h-2.2-0.6-0.5-2l-1.8-0.1-1.5-0.3-1.4-0.4-1.3-0.4-1.1-0.7-1.1-0.4-0.8-0.8-0.7-0.8-0.5-0.9-0.5-1.3-0.5-1.2-0.4-1.6v-1.7l-0.2-2.1-0.1-2v-28.3h-6.9v-9.7h6.9v-14.3h13.7v14.3h8.2v9.7h-8.2v28.8l0.2 1.1 0.2 0.6 0.1 0.6 0.6 0.5 0.3 0.3 1 0.2 1.1 0.1h4.7c0 0 0 10.5-0.2 10.5zm-122.3-17.4h14l0.1 1 0.2 0.9 0.1 0.9 0.3 0.7 0.3 0.6 0.5 0.9 0.6 0.5 0.7 0.5 0.8 0.4 0.9 0.5 0.8 0.3 0.9 0.2 1 0.3 1.1 0.2h1.2 1.4 1.9l1.6-0.2 0.7-0.3 0.8-0.2 0.7-0.3 0.4-0.3 0.7-0.3 0.4-0.5 0.3-0.4 0.3-0.4 0.4-0.6 0.3-0.5v-0.6-1.1-0.3l-0.3-0.5-0.2-0.4-0.3-0.3-0.5-0.4-0.3-0.3-0.5-0.4-1.2-0.7-1.4-0.4-1.9-0.5-1.7-0.6-1.8-0.3-1.2-0.4-1.4-0.3-1.1-0.1-2.4-0.8-2.3-0.6-1.9-0.7-1.9-0.7-1.7-0.8-1.4-0.8-1.3-0.9-1.2-0.8-0.8-1.1-0.8-1-0.6-1.1-0.6-1.1-0.5-1.4-0.3-1.1-0.2-1.5v-1.4-1.9l0.4-1.9 0.1-0.9 0.2-0.8 0.4-0.8 0.3-0.8 0.4-0.8 0.4-0.7 0.5-0.7 0.5-0.8 0.6-0.7 0.5-0.5 0.6-0.8 0.6-0.5 1.7-1.1 1.6-0.9 1.7-0.9 1.9-0.7 2-0.4 2.2-0.3 2.2-0.2 2.5-0.2 2.5 0.2 2.2 0.2 2.4 0.3 2.2 0.4 1.9 0.7 1.8 0.9 0.8 0.5 1 0.4 0.7 0.4 0.8 0.7 0.7 0.5 0.7 0.8 0.5 0.5 0.6 0.7 0.7 0.8 0.4 0.7 0.5 0.7 0.5 0.8 0.3 0.8 0.4 0.9 0.2 0.8 0.2 1.1 0.4 1.9 0.2 2h-13.5v-0.8l-0.3-0.7-0.1-0.8-0.2-0.6-0.5-0.7-0.4-0.6-0.5-0.5-0.5-0.4-0.6-0.5-0.8-0.3-0.6-0.3-0.8-0.2-0.8-0.3-1.1-0.2-0.9-0.1h-1l-1.8 0.1-1.6 0.2-0.6 0.3-0.8 0.2-0.5 0.1-0.5 0.3-0.4 0.4-0.5 0.3-0.2 0.4-0.3 0.3-0.3 0.5-0.1 0.6v0.5 0.5 0.5 0.3l0.1 0.4 0.5 0.5 0.3 0.5 0.5 0.1 0.6 0.3 0.5 0.5 1.5 0.6 1.8 0.7 1.8 0.7 2.7 0.5 1.1 0.2 0.9 0.3h0.8l1 0.3 2.3 0.6 2.4 0.7 2 0.7 2 0.7 1.4 0.7 1.6 0.8 1.3 1 1.1 0.8 0.7 0.9 0.8 0.9 0.8 1.1 0.5 1.3 0.4 1.1 0.4 1.4 0.1 1.4v2.5l-0.1 1.2v1l-0.2 0.9-0.3 1-0.3 1.1-0.2 0.7-0.5 1-0.3 0.8-0.6 0.8-0.5 0.7-0.6 0.8-0.5 0.6-0.6 0.7-0.8 0.6-0.8 0.6-0.6 0.5-1.1 0.5-0.8 0.6-0.9 0.5-0.9 0.3-1 0.4-1.1 0.5-1.2 0.2-2.4 0.4-2.5 0.3-2.6 0.5h-5.7l-2.3-0.5-2.4-0.3-2.2-0.4-1.1-0.3-0.9-0.4-0.9-0.6-1-0.3-0.8-0.5-0.8-0.4-0.9-0.7-0.8-0.4-0.8-0.7-0.6-0.7-0.8-0.7-0.6-0.6-0.5-0.8-0.4-0.8-0.3-0.6-0.4-0.9-0.4-0.8-0.3-1.1-0.4-0.8-0.1-0.9v-1l-0.3-1.1-0.2-0.9zm-24.1 1.2h13.8l-0.6 1.9-0.8 1.9-0.8 1.9-1 1.6-1.2 1.5-1.3 1.6-1.2 1.1-1.6 1.4-1.9 0.9-1.5 1.1-1.9 0.8-1.7 0.6-2.1 0.5-2.2 0.3-2.1 0.3h-5.1l-1.2-0.3-1.1-0.1-1.4-0.4-1.1-0.1-1.3-0.3-1.1-0.7-1.1-0.4-1.2-0.5-0.8-0.8-1.2-0.6-0.8-0.8-1-0.8-0.9-0.9-0.9-0.8-0.7-0.9-0.6-1-0.8-1.1-0.6-1.2-0.6-1-0.5-1.2-0.6-1.3-0.3-1.2-0.4-1.3-0.4-1.4-0.2-1.2-0.3-1.6-0.2-1.4-0.1-1.4v-1.7l-0.2-1.6 0.2-1.7v-1.4l0.1-1.4 0.2-1.6 0.3-1.3 0.2-1.4 0.3-1.4 0.5-1.1 0.3-1.2 0.6-1.1 0.5-1.3 0.4-1.2 0.8-1.1 0.6-1 0.8-0.9 0.8-1.1 0.8-0.8 0.9-0.8 0.8-0.9 1.1-0.6 0.9-0.7 1-0.6 0.9-0.4 1.3-0.7 1.1-0.4 1.1-0.4 1.2-0.3 1.3-0.3 1.2-0.1 1.3-0.2h1.2 3 1.6l1.2 0.2 1.4 0.1 1.3 0.2 1.2 0.4 1.3 0.4 1.3 0.4 1.2 0.7 0.9 0.4 1.1 0.5 1 0.6 0.9 0.8 1 0.8 0.9 0.8 0.8 0.9 0.8 0.8 0.8 1.1 0.7 1.1 0.5 0.9 0.6 1.3 0.7 1.1 0.4 1.1 0.3 1.4 0.4 1.2 0.4 1.4 0.2 1.4 0.4 1.5v1.5 1.6l0.2 1.6v3.9l-0.2 0.7v0.7h-34.4v1.5l0.3 1.3 0.2 1.6 0.3 1.1 0.4 1 0.5 1.1 0.5 0.8 0.8 0.8 0.6 0.8 0.6 0.5 1.1 0.6 0.8 0.5 0.9 0.3 1.1 0.3 1.3 0.1 1.2 0.2 1.8-0.2 1.4-0.3 0.8-0.3h0.7l0.7-0.3 0.6-0.5 0.5-0.4 0.4-0.4 0.7-0.4 0.3-0.5 0.6-0.6 0.3-0.6 0.3-0.7 0.5-0.6zm-20.2-15.8h20.4l-0.2-1.3-0.2-1.2-0.1-1.1-0.5-0.9-0.3-1-0.3-0.9-0.6-0.8-0.7-0.9-0.6-0.5-0.9-0.6-0.8-0.5-0.8-0.3-1.1-0.3-0.9-0.2-1.3-0.3h-2.2l-0.9 0.3-1.3 0.2-0.9 0.3-0.8 0.3-0.8 0.5-0.6 0.6-0.8 0.5-0.6 0.9-0.6 0.8-0.4 0.9-0.4 1-0.3 0.9-0.3 1.1-0.4 1.2c0 0 0 1.3 0.2 1.3zm-27.4-20.7v52.2h-13.6v-6.3l-0.8 1.1-0.8 0.8-0.8 0.8-0.9 0.7-0.8 0.7-0.8 0.6-1.1 0.5-0.9 0.6-1 0.5-1.1 0.3-1.1 0.3-0.9 0.3-1.4 0.2-0.9 0.1-1.3 0.2h-1.3l-2-0.2-1.9-0.1-1.8-0.2-1.6-0.6-1.6-0.8-1.4-0.6-1.2-1-1.1-0.9-1.1-1.1-0.8-1.4-0.8-1.4-0.5-1.7-0.4-1.9-0.5-1.8-0.2-2.1v-37.8h13.8v33.1l0.2 1.2 0.1 1 0.2 1.2 0.3 0.9 0.3 0.7 0.5 0.8 0.3 0.7 0.5 0.5 0.4 0.5 0.8 0.3 0.8 0.5 0.8 0.1 0.8 0.2 0.9 0.3h1.3l1.1-0.2 1-0.1 1.1-0.2 1.1-0.5 0.8-0.3 1-0.4 0.7-0.7 0.8-0.6 0.7-0.8 0.6-0.8 0.5-0.9 0.3-1.1 0.3-0.9 0.3-1.1 0.1-1.1v-32.3zm-62.1-18.1v70.3h-14v-70.3zm-43.2 63.7l-0.8 1.2-0.6 1-0.9 0.8-0.7 0.9-0.9 0.6-0.9 0.8-1 0.6-1.1 0.5-1.1 0.5-1.1 0.6-1.4 0.2-1.1 0.4-1.1 0.2-1.4 0.1h-1.4-1.2-1.9l-1.7-0.1-1.6-0.3-1.6-0.5-1.4-0.6-1.2-0.8-1.1-0.8-1.1-1.1-1.1-1.2-0.7-1.3-0.7-1.2-0.7-1.6-0.4-1.6-0.3-1.7-0.2-1.9v-1.7-1.9l0.2-1.5 0.3-1.6 0.4-1.6 0.7-1.2 0.7-1.3 0.7-1.2 1.1-1 0.9-0.9 1.4-0.9 1.4-0.8 1.7-0.7 1.8-0.6 1.9-0.5 2-0.6 2.2-0.3 1.2-0.3 1.4-0.2 1.5-0.1 1.7-0.2 2-0.3 1.7-0.5 1.6-0.4 1.3-0.7 0.4-0.1 0.6-0.5 0.4-0.5 0.3-0.3 0.1-0.4 0.2-0.5 0.1-0.3 0.2-0.6-0.2-0.7-0.1-0.9v-0.5l-0.3-0.6-0.2-0.6-0.5-0.5-0.3-0.3-0.6-0.5-0.5-0.1-0.4-0.5-0.8-0.2-0.8-0.3h-0.8-1.1l-0.9-0.3h-2.1l-1 0.3h-1.1l-0.7 0.2-0.8 0.3-0.6 0.3-0.8 0.2-0.6 0.6-0.5 0.5-0.4 0.3-0.3 0.6-0.4 0.5-0.1 0.6-0.3 0.6v0.8l-0.2 0.8v0.6h-13v-0.9l0.2-1.9 0.3-1.9 0.1-0.8 0.2-0.9 0.3-0.8 0.3-0.8 0.5-0.8 0.5-0.7 0.4-0.7 0.5-0.6 0.6-0.8 0.5-0.4 0.6-0.8 0.8-0.7 0.6-0.4 1-0.7 0.6-0.4 0.8-0.3 1.7-1 2-0.4 1.9-0.7 2.2-0.3 2.2-0.1 2.4-0.2 2.6 0.2 2.5 0.1 2.4 0.3 2 0.3 2 0.5 1.9 1 1.8 0.6 1.5 0.8 1.3 1.1 1.2 1.1 0.5 0.6 0.6 0.6 0.3 0.6 0.3 0.7 0.5 0.7 0.3 0.5 0.3 1 0.2 0.7 0.2 1.4 0.1 1.9v31.2l0.2 1.4 0.3 1.1 0.1 0.9 0.5 0.8 0.5 0.5 0.6 0.6 0.8 0.3v2.4h-14.4l-0.5-0.5-0.3-0.9v-0.8l-0.3-0.7-0.3-0.7v-1-0.9zm-0.3-19.1l-1.8 0.9-1.8 0.6-2.1 0.7-2.2 0.4-1.9 0.5-1.5 0.3-0.6 0.2-0.5 0.1-1.7 0.5-1.3 0.8-0.6 0.1-0.6 0.4-0.4 0.4-0.4 0.3-0.3 0.5-0.5 0.6-0.2 0.5-0.1 0.3-0.2 0.6v0.7l-0.1 0.6v1.4l0.1 0.6 0.2 0.7 0.1 0.6 0.3 0.5 0.4 0.6 0.3 0.3 0.4 0.6 0.5 0.3 0.6 0.5 0.4 0.2 0.7 0.1 0.7 0.3 0.6 0.2h0.8 2l1.3-0.2 1.2-0.3 1.1-0.3 1.1-0.5 0.9-0.4 1-0.7 0.8-0.7 0.8-1 0.7-0.8 0.5-1.1 0.3-0.9 0.5-1.3 0.3-1 0.2-1.3v-1.4zm-71.9 25.7l-24.3-70.3h16.1l14.9 52.6 15.2-52.6h15.8l-23.8 70.3z"/></svg>